<svg xmlns="http://www.w3.org/2000/svg" xmlns:xlink="http://www.w3.org/1999/xlink" width="2000" zoomAndPan="magnify" viewBox="0 0 1500 1499.999933" height="2000" preserveAspectRatio="xMidYMid meet" version="1.0"><metadata><manifest xmlns:c2pa="http://c2pa.org/manifest">AABCHGp1bWIAAAAeanVtZGMycGEAEQAQgAAAqgA4m3EDYzJwYQAAAEH2anVtYgAAAEdqdW1kYzJtYQARABCAAACqADibcQN1cm46YzJwYTpkZDQ0YTUyZC1lMjMzLTQzNDItOTE0Yy1lMjc1NzVmMWExYTMAAAAB5Gp1bWIAAAApanVtZGMyYXMAEQAQgAAAqgA4m3EDYzJwYS5hc3NlcnRpb25zAAAAAO5qdW1iAAAAQWp1bWRjYm9yABEAEIAAAKoAOJtxE2MycGEuYWN0aW9ucy52MgAAAAAYYzJzaERSl3ZzyXyh0biFhp85ydcAAAClY2JvcqFnYWN0aW9uc4GjZmFjdGlvbmxjMnBhLmNyZWF0ZWRtc29mdHdhcmVBZ2VudGhDYW52YSBBSXFkaWdpdGFsU291cmNlVHlwZXhTaHR0cDovL2N2LmlwdGMub3JnL25ld3Njb2Rlcy9kaWdpdGFsc291cmNldHlwZS9jb21wb3NpdGVXaXRoVHJhaW5lZEFsZ29yaXRobWljTWVkaWEAAADFanVtYgAAAEBqdW1kY2JvcgARABCAAACqADibcRNjMnBhLmhhc2guZGF0YQAAAAAYYzJzaLLC/NkdCNthbKP2CV03sUIAAAB9Y2JvcqVqZXhjbHVzaW9uc4GiZXN0YXJ0GQETZmxlbmd0aBlYKGRuYW1lbmp1bWJmIG1hbmlmZXN0Y2FsZ2ZzaGEyNTZkaGFzaFggvRqdbnvaHvFyhevwgHYUoxGvB+EMw9uIpIjH1RKUC8JjcGFkSQAAAAAAAAAAAAAAAgtqdW1iAAAAJ2p1bWRjMmNsABEAEIAAAKoAOJtxA2MycGEuY2xhaW0udjIAAAAB3GNib3Knamluc3RhbmNlSUR4LHhtcDppaWQ6NDllZTdlZTMtZTcwYy00MDFlLWFhYzMtNWU0NDcwZTdjZjc4dGNsYWltX2dlbmVyYXRvcl9pbmZvo2RuYW1lZ2MycGEtcnNndmVyc2lvbmUwLjAuMHdvcmcuY29udGVudGF1dGguYzJwYV9yc2UwLjAuMGlzaWduYXR1cmV4TXNlbGYjanVtYmY9L2MycGEvdXJuOmMycGE6ZGQ0NGE1MmQtZTIzMy00MzQyLTkxNGMtZTI3NTc1ZjFhMWEzL2MycGEuc2lnbmF0dXJlcmNyZWF0ZWRfYXNzZXJ0aW9uc4GiY3VybHgpc2VsZiNqdW1iZj1jMnBhLmFzc2VydGlvbnMvYzJwYS5oYXNoLmRhdGFkaGFzaFggPmo4ktFR44xnJ7yQno4SNwgP/4fhlTzoecBhHhnsT3dzZ2F0aGVyZWRfYXNzZXJ0aW9uc4GiY3VybHgqc2VsZiNqdW1iZj1jMnBhLmFzc2VydGlvbnMvYzJwYS5hY3Rpb25zLnYyZGhhc2hYICA3XbTG8+5EZBrmhKUqnj+wf50IegbpJ/wfa+huwFgNaGRjOnRpdGxlZTEuc3ZnY2FsZ2ZzaGEyNTYAAD24anVtYgAAAChqdW1kYzJjcwARABCAAACqADibcQNjMnBhLnNpZ25hdHVyZQAAAD2IY2JvctKEWRKAogE4Jhghg1kFPjCCBTowggMioAMCAQICECCOaLh4u4UVks6Vw8rw6q0wDQYJKoZIhvcNAQENBQAwIjEgMB4GA1UEAxMXU2lnbmluZyBJbnRlcm1lZGlhdGUgQ0EwHhcNMjYwNjAxMjM1MTI3WhcNMjYwNjA5MjM1MTI3WjA4MQ4wDAYDVQQKEwVDYW52YTEOMAwGA1UECxMFQ2FudmExFjAUBgNVBAMTDUNhbnZhIFNpZ25pbmcwggIiMA0GCSqGSIb3DQEBAQUAA4ICDwAwggIKAoICAQCuKO8zkaV+R3KxzCU5fLl+RTU3B/EwkZ2JzH6+3E24goG5x7GsQugtr5P8QHvSagzuah+T5sCrUjqxWaYDdimV+1KO5idL6rmDm/48d5D6M3IXsmA3091pTaCnqbroNoOKLtepUrZMgI9s4Wz0djwZmWHy7tT+8OQeLTqK2zJxoFjeLfewVPYVv15D3hmTjaj7hwcIrVHCgKKFhG72i4yqPGJBU2i+GYzGSjM8kgP14z1HFehvv6TvGCm8MdxI/L26oEyGkwJxmjoxVwMFMY7+GcPPIlHwjr77MA9EvycL+pmQG3hlF05iExMb68PR0SvjTbwCYt/rbiHyN6Yn9LaVwyzf3dFKDE9bJ5AUAOH1TVPwpObey2vvwxCmO4stBstnNIyIj21DBqPiBPZ6g6FMNNnE2I3r15BkETIYzYerehGXlIdl2SNut+WVzRUfRbuXkxCYQZz58Az6i1egbat5baiv4w3Qv2yXRXGrsmbxbGGS2Z6RVu5riJG0eI2w+PFkHv/ZljvGS0Mgvhk446Tnl/4m3tIgOGC10LHigyHXOdSyHuYznae1VPW+mLKxeROhpHAQSrN0ih20HmYnl7xDS73OevASR+Z1ZQ1htcQxonENcngXbuarpySgGAmhIpcCJD3ZD1+EmvqO5QZA+JHroDqND3aWKWaC2Sq1i55rcQIDAQABo1YwVDAOBgNVHQ8BAf8EBAMCB4AwEwYDVR0lBAwwCgYIKwYBBQUHAwQwDAYDVR0TAQH/BAIwADAfBgNVHSMEGDAWgBQeRaAltZXczJtSVXwcoXoeXbb7OjANBgkqhkiG9w0BAQ0FAAOCAgEAJedWLGZKuNEHHdwKZ3yqYNxBN3zEs7oX3bZs76x46HPYTwqFNYjPmD5es9xHyv5mhqqiG6YvyvwCW8JbF3U3fsNDbgnD1y5gA29cLza6alN3KKKxyq/GtW2Duem/3WrgD2BbrtVbjPKmoqotaFg1O2jkBHQKaxiPh2mBI+lNmWvO0Fc21yzgOJm4tksFTwqH3LHEhch65lVSUqDIQWvAmlVSFPqjnNCQuKtZNzhwxiKWRAnGgJkEVW+PNDpqVFunm+FfnRACkw946Cb5KuhjiQsVssgjL6WFU8WbLLuGZsAHw9ZB3uofiLURHXNXM/mTeu6AEltZYsy0t/hy4mdm2g27TBNJMG4ousosVarhOLl31XeS3X2F4Xg7x+OhOGznhaLDw4wY+GUb9IpijgPOeR7/3bh5tLa6Tb8vsc8aZw8Taux2u7yuE51N+It20Qt/Ne4vepH73p7wT0LFh8FmLli0W6GKnYEXQyKg3BNLIb9qRhVSb68vxJZ1krxSgSdK/kCHncV/If30ROb033/lJ0Rrq2nOIwUnQPcOTFvA7yzeoQs/AutvFcSmt9RRx0T+y5QJRxzbNKTkgGsG9Yw7kRWUT9zShJCemUz0fNwDmd3cbVNvtXz4w+eHQpIM0oRQi5X5ISoqkAuPyEXaqvGDGEXMn3b7kTttbSo2K8/zmo1ZBugwggbkMIIEzKADAgECAhQQIx7sgy7RKz6KV3POQz05dnV6vDANBgkqhkiG9w0BAQsFADBtMQswCQYDVQQGEwJBVTEMMAoGA1UECBMDTlNXMQ8wDQYDVQQHEwZTeWRuZXkxEzARBgNVBAoTCkNhbnZhIFByb2QxEDAOBgNVBAsTB1NpZ25pbmcxGDAWBgNVBAMTD1NpZ25pbmcgQ0EgUHJvZDAeFw0yNjA2MDEwNTM4MjBaFw0yNjA3MDEwNTM4NTBaMCIxIDAeBgNVBAMTF1NpZ25pbmcgSW50ZXJtZWRpYXRlIENBMIICIjANBgkqhkiG9w0BAQEFAAOCAg8AMIICCgKCAgEAyd8mPcMVsVzOKII3MCx0UOuSk0hZiwI4FQal7Iixa4cdKmQ+8vIe1odYCegGcK8IXPeZ8F/r095lbHvfDxepmDLKwCVGI2e7ZGjICXnWmUrZty/m3stc7EUmholTyHrd9Zz/HcM/oPznIEwO0udjoQ9WzstyoNXW2G3oMIFXYrQVG//t7H7aekcZJYn93ztjEMawJsCyM2urgMHChxmaxoJAq1loRJcy5rv8L2wrsQoC4656uUdS9MoYym63eS4zfpGj6r4nFa7hAua+FJO3JcuqJRg17/WZl4LmcPstc8WfP3HnchbswLpcvMRSq1afrBx9PJMX9GvSpsxPFZuyrCZdlzEr1KAJM/tj1QLJOzgKLkCQldXHnnDSljtng6DpBvtmvE9oDpflfTQY2OYF3GqRQQ+djm46X2RGHpKxMQxkjQcpAf+dmzD2XWwGVbe0ezzKzEr4TqTjl8tdsDNTReH6N+99Gf0WrXUMSoWe862LM044leTl1TSLAT0JJWAS1fFlGiPlNPHEbwzTjXuv4gekH3+Psw9zYXa6GNOiBG/zJaVSJ+s6jhy5chNytTVnzgeE6cyFB/TKTYH/pGzZvby00v5mqbxlS1Ze1B9FPXKcfH4g7RVcwZQhymZ5U9I5bH/ublSeX5e25kMyIvaoHEcmlPCJHQMRN4BKZBynmtECAwEAAaOCAcUwggHBMA4GA1UdDwEB/wQEAwIBBjASBgNVHRMBAf8ECDAGAQH/AgEAMB0GA1UdDgQWBBQeRaAltZXczJtSVXwcoXoeXbb7OjAfBgNVHSMEGDAWgBRKXG3+d1BovWMpYWTthuIhywTjHTCB1wYIKwYBBQUHAQEEgcowgccwTAYIKwYBBQUHMAGGQGh0dHBzOi8vcGtpLmNhbnZhLWludGVybmFsLmNvbS92MS9wa2kvY2FudmEtcHJvZC9sMS9zaWduaW5nL29jc3AwdwYIKwYBBQUHMAKGa2h0dHBzOi8vcGtpLmNhbnZhLWludGVybmFsLmNvbS92MS9wa2kvY2FudmEtcHJvZC9sMS9zaWduaW5nL2lzc3Vlci8xZGM0NWM4NC00ZjkzLWUxMGUtNGMzNi1lN2RlYWEyNTYzOTIvZGVyMIGABgNVHR8EeTB3MHWgc6Bxhm9odHRwczovL3BraS5jYW52YS1pbnRlcm5hbC5jb20vdjEvcGtpL2NhbnZhLXByb2QvbDEvc2lnbmluZy9pc3N1ZXIvMWRjNDVjODQtNGY5My1lMTBlLTRjMzYtZTdkZWFhMjU2MzkyL2NybC9kZXIwDQYJKoZIhvcNAQELBQADggIBAJVh0RYKbBJeMDHW+Gjmjkexe/7aWFKHL5FR1bL1NnyDl3SVap5Y8EiQqDM1OWXKSXSgJQzuGIsHCXIeokIiQD+IWMef03S/3KSPcnEuZd1BpC2SmxUmEUb+2iuqukAquKcaDybZfV4eoWcDQQsuYItHWO27zmBsMg8uV5TfyDWm44F02DfTCxCazFRBZ03UCchc3EnnNXL+/+qATuKbJmfe6vYWn8wmpwzOwawMHvVIhaW1qAWZqcWg5OkcM8YgMmbXciKzZtLUHdDXXy9dzWZhYSX90FROJl9Nrcur30r2KCwoQ4CEmuQccKiKJymZcqDl2wmXeErDUzwbRPnpGcz5Cpugi1YWaWh8B4qFkliW3iclhxAvTS/Rsqqm2yWCCChlusAeK7E6+5dT3FCZkwv7gqwf4LRNL8KVrf5FyAy1+t9EwKooEmvEy5X/fVuRn2Sr7JaByR6yMbI4QntbUPhlfwNHGz3W7qoycp3KRcvet+CLNAoPYShIBlwmmBYtLJXImf4wXX6SoL+M1ln+BLP8XHY+kgh1L6DxDo5Kd/icr6iWJplPvZGgiPFcL8ZWlvU5LUIVETLSW3h0SxO9vlaMUTo3yFBZqyPtUFLZ8U9Gw/tbneNHiqPKEkfUub4c71j5kJX1vyJaNlOS/jy3OyP0GQuXsfZuYe19R9VWOJucWQZKMIIGRjCCBC6gAwIBAgIRAMm1bMZTPQwH8yF1O+tQYeEwDQYJKoZIhvcNAQENBQAwgYExCzAJBgNVBAYTAkFVMRMwEQYDVQQKDApDYW52YSBQcm9kMRcwFQYDVQQLDA5DbG91ZCBQbGF0Zm9ybTEMMAoGA1UECAwDTlNXMSUwIwYDVQQDDBxDYW52YSBQcm9kIFJvb3QgQ0EgR2xvYmFsIEczMQ8wDQYDVQQHDAZTeWRuZXkwHhcNMjYwNTE1MDMxMjU1WhcNMjYxMTExMDMxMjU1WjBtMQswCQYDVQQGEwJBVTEMMAoGA1UECBMDTlNXMQ8wDQYDVQQHEwZTeWRuZXkxEzARBgNVBAoTCkNhbnZhIFByb2QxEDAOBgNVBAsTB1NpZ25pbmcxGDAWBgNVBAMTD1NpZ25pbmcgQ0EgUHJvZDCCAiIwDQYJKoZIhvcNAQEBBQADggIPADCCAgoCggIBAPQwdl7gkSYd/haQbn60D5XBZzJjOxjDX1oVoyeH9BmnwDCRyLwaOoZ03T3PM6tgSnqT2cBdNPRjsfe0hSGkMhbLSOrKwFE4hi8p0aTPkungwfeEHqdeciIvBekd+r873kKzxDvCuYygHUM8wtcE18D+pEWpB4ZWAvZSXE9yHGQzWXWMSFJ+3GBnT0qlgWpwt4MTI8Hb6et+xf2oa5gueYk4RmzUS2YtrmqOpt0anuaU7xBrAdBSZnZCwPtgkOhJvvBTdc4ef/qHumzmtWFMrnXqvJqQQp/0/XT2bfvrLJSjJ8bGpAPkTgq2VpNWwfQBaif4vcyjRymf9DEuKQX7aJHZEbHJWwxRpAvBbRRdaU7DjvXrbfByuy+QZn5izjQb5A4Gsgdr9urRwDodm/FI1C3ojv4zQYNsbPaR0PcKhs1pdc0YW3jL6peOgxvH80t8yELn5+sOhtQXxFRKQJD5KfOL3k+JvEkUdoieOLwuuO54ye6d/znXTz2zLKtc2oFoVBvJj/W2QRIR5CYW50+sOXurCHqwdLNYs7OuZ0pnMl3j34AHOUBw4ZT5vqXfcnI/tMPPEaxkxHJBoR5BpgQvA8h4Q2zVwh8VEtWV9CKYKDQnp1vftErsYgbjP/Ku8xvP2+eST1yTMEX7cLNO1PzP+a2KeW17BjhAOk90J9s9r/d9AgMBAAGjgcswgcgwEgYDVR0TAQH/BAgwBgEB/wIBATAfBgNVHSMEGDAWgBS7OGR5aZYka7D+kRKylDTyz5xjizAdBgNVHQ4EFgQUSlxt/ndQaL1jKWFk7YbiIcsE4x0wDgYDVR0PAQH/BAQDAgGGMGIGA1UdHwRbMFkwV6BVoFOGUWh0dHA6Ly9kMXVhZG4wcGpzaWg4bS5jbG91ZGZyb250Lm5ldC9jcmwvNWU0OWJhZGQtMGE2Ni00ZjNhLWIzY2YtMWE0ZmQwZjYzNWQxLmNybDANBgkqhkiG9w0BAQ0FAAOCAgEAqo63BqerqV9bpe4XOXD8QkcnbBWL1dj11OM1lI+Uivd+cnarPYlFnd/lUJr/5OYD2nbC/loE0pInI3j+5fX+o/EW6erKQoXHeY0MPT0mbEwQDWROyMR49uF/l4EGXDbKDiULdf4T89OfHxVdOPBsb2Nxo0ZsmsPX9Jm1iCNu2Lxgqdkw54yH3fC2/o222yGAVFzFSZLqxu++FwAqLdT9iwydu1IEkkfV2KuvqtC4ZJqCF0tvFrBwt3U58yfDxop74b7hM64qNDXR3C8wrCUFFNyc0m66f68G8+6Op82a3mZz7Qe7akPC0cH4tuakL6HHaSxKaBMIsyML6iIlR4AWerURUmUH76eorMLi4PddrJMbWO9nwmUl5nB0IhujXoNaYM/l5SsuIMny39xHjqFbOWaTnj0fV/1RmqJMwLI4OOuc7TFvCb3LKc8kIy9w33yypaM4ZJZBA9RcCqwx00zObWFZ2M3PGe23mr25hFr2u9hyZ67wz0STwvPWxagRpVymR0j9c5kFjWckL/Ei2UrbZ7f0NL8lCJsNVmAqx+Q6Rn61efeuUPvPGm4ky9S0GZGeEDeKpnFrnT5cSTU/Z/FfYp7gDTbmGSTihUljb4lmNaAPWpi9dnlZEdlJTxIyLDHWKLDY9dwXwf/IR4SKxmUgYzbUtziDOFSZEvGutOwNtu+hY3BhZFko7wAAAAAAAAAAAAAAAAAAAAAAAAAAAAAAAAAAAAAAAAAAAAAAAAAAAAAAAAAAAAAAAAAAAAAAAAAAAAAAAAAAAAAAAAAAAAAAAAAAAAAAAAAAAAAAAAAAAAAAAAAAAAAAAAAAAAAAAAAAAAAAAAAAAAAAAAAAAAAAAAAAAAAAAAAAAAAAAAAAAAAAAAAAAAAAAAAAAAAAAAAAAAAAAAAAAAAAAAAAAAAAAAAAAAAAAAAAAAAAAAAAAAAAAAAAAAAAAAAAAAAAAAAAAAAAAAAAAAAAAAAAAAAAAAAAAAAAAAAAAAAAAAAAAAAAAAAAAAAAAAAAAAAAAAAAAAAAAAAAAAAAAAAAAAAAAAAAAAAAAAAAAAAAAAAAAAAAAAAAAAAAAAAAAAAAAAAAAAAAAAAAAAAAAAAAAAAAAAAAAAAAAAAAAAAAAAAAAAAAAAAAAAAAAAAAAAAAAAAAAAAAAAAAAAAAAAAAAAAAAAAAAAAAAAAAAAAAAAAAAAAAAAAAAAAAAAAAAAAAAAAAAAAAAAAAAAAAAAAAAAAAAAAAAAAAAAAAAAAAAAAAAAAAAAAAAAAAAAAAAAAAAAAAAAAAAAAAAAAAAAAAAAAAAAAAAAAAAAAAAAAAAAAAAAAAAAAAAAAAAAAAAAAAAAAAAAAAAAAAAAAAAAAAAAAAAAAAAAAAAAAAAAAAAAAAAAAAAAAAAAAAAAAAAAAAAAAAAAAAAAAAAAAAAAAAAAAAAAAAAAAAAAAAAAAAAAAAAAAAAAAAAAAAAAAAAAAAAAAAAAAAAAAAAAAAAAAAAAAAAAAAAAAAAAAAAAAAAAAAAAAAAAAAAAAAAAAAAAAAAAAAAAAAAAAAAAAAAAAAAAAAAAAAAAAAAAAAAAAAAAAAAAAAAAAAAAAAAAAAAAAAAAAAAAAAAAAAAAAAAAAAAAAAAAAAAAAAAAAAAAAAAAAAAAAAAAAAAAAAAAAAAAAAAAAAAAAAAAAAAAAAAAAAAAAAAAAAAAAAAAAAAAAAAAAAAAAAAAAAAAAAAAAAAAAAAAAAAAAAAAAAAAAAAAAAAAAAAAAAAAAAAAAAAAAAAAAAAAAAAAAAAAAAAAAAAAAAAAAAAAAAAAAAAAAAAAAAAAAAAAAAAAAAAAAAAAAAAAAAAAAAAAAAAAAAAAAAAAAAAAAAAAAAAAAAAAAAAAAAAAAAAAAAAAAAAAAAAAAAAAAAAAAAAAAAAAAAAAAAAAAAAAAAAAAAAAAAAAAAAAAAAAAAAAAAAAAAAAAAAAAAAAAAAAAAAAAAAAAAAAAAAAAAAAAAAAAAAAAAAAAAAAAAAAAAAAAAAAAAAAAAAAAAAAAAAAAAAAAAAAAAAAAAAAAAAAAAAAAAAAAAAAAAAAAAAAAAAAAAAAAAAAAAAAAAAAAAAAAAAAAAAAAAAAAAAAAAAAAAAAAAAAAAAAAAAAAAAAAAAAAAAAAAAAAAAAAAAAAAAAAAAAAAAAAAAAAAAAAAAAAAAAAAAAAAAAAAAAAAAAAAAAAAAAAAAAAAAAAAAAAAAAAAAAAAAAAAAAAAAAAAAAAAAAAAAAAAAAAAAAAAAAAAAAAAAAAAAAAAAAAAAAAAAAAAAAAAAAAAAAAAAAAAAAAAAAAAAAAAAAAAAAAAAAAAAAAAAAAAAAAAAAAAAAAAAAAAAAAAAAAAAAAAAAAAAAAAAAAAAAAAAAAAAAAAAAAAAAAAAAAAAAAAAAAAAAAAAAAAAAAAAAAAAAAAAAAAAAAAAAAAAAAAAAAAAAAAAAAAAAAAAAAAAAAAAAAAAAAAAAAAAAAAAAAAAAAAAAAAAAAAAAAAAAAAAAAAAAAAAAAAAAAAAAAAAAAAAAAAAAAAAAAAAAAAAAAAAAAAAAAAAAAAAAAAAAAAAAAAAAAAAAAAAAAAAAAAAAAAAAAAAAAAAAAAAAAAAAAAAAAAAAAAAAAAAAAAAAAAAAAAAAAAAAAAAAAAAAAAAAAAAAAAAAAAAAAAAAAAAAAAAAAAAAAAAAAAAAAAAAAAAAAAAAAAAAAAAAAAAAAAAAAAAAAAAAAAAAAAAAAAAAAAAAAAAAAAAAAAAAAAAAAAAAAAAAAAAAAAAAAAAAAAAAAAAAAAAAAAAAAAAAAAAAAAAAAAAAAAAAAAAAAAAAAAAAAAAAAAAAAAAAAAAAAAAAAAAAAAAAAAAAAAAAAAAAAAAAAAAAAAAAAAAAAAAAAAAAAAAAAAAAAAAAAAAAAAAAAAAAAAAAAAAAAAAAAAAAAAAAAAAAAAAAAAAAAAAAAAAAAAAAAAAAAAAAAAAAAAAAAAAAAAAAAAAAAAAAAAAAAAAAAAAAAAAAAAAAAAAAAAAAAAAAAAAAAAAAAAAAAAAAAAAAAAAAAAAAAAAAAAAAAAAAAAAAAAAAAAAAAAAAAAAAAAAAAAAAAAAAAAAAAAAAAAAAAAAAAAAAAAAAAAAAAAAAAAAAAAAAAAAAAAAAAAAAAAAAAAAAAAAAAAAAAAAAAAAAAAAAAAAAAAAAAAAAAAAAAAAAAAAAAAAAAAAAAAAAAAAAAAAAAAAAAAAAAAAAAAAAAAAAAAAAAAAAAAAAAAAAAAAAAAAAAAAAAAAAAAAAAAAAAAAAAAAAAAAAAAAAAAAAAAAAAAAAAAAAAAAAAAAAAAAAAAAAAAAAAAAAAAAAAAAAAAAAAAAAAAAAAAAAAAAAAAAAAAAAAAAAAAAAAAAAAAAAAAAAAAAAAAAAAAAAAAAAAAAAAAAAAAAAAAAAAAAAAAAAAAAAAAAAAAAAAAAAAAAAAAAAAAAAAAAAAAAAAAAAAAAAAAAAAAAAAAAAAAAAAAAAAAAAAAAAAAAAAAAAAAAAAAAAAAAAAAAAAAAAAAAAAAAAAAAAAAAAAAAAAAAAAAAAAAAAAAAAAAAAAAAAAAAAAAAAAAAAAAAAAAAAAAAAAAAAAAAAAAAAAAAAAAAAAAAAAAAAAAAAAAAAAAAAAAAAAAAAAAAAAAAAAAAAAAAAAAAAAAAAAAAAAAAAAAAAAAAAAAAAAAAAAAAAAAAAAAAAAAAAAAAAAAAAAAAAAAAAAAAAAAAAAAAAAAAAAAAAAAAAAAAAAAAAAAAAAAAAAAAAAAAAAAAAAAAAAAAAAAAAAAAAAAAAAAAAAAAAAAAAAAAAAAAAAAAAAAAAAAAAAAAAAAAAAAAAAAAAAAAAAAAAAAAAAAAAAAAAAAAAAAAAAAAAAAAAAAAAAAAAAAAAAAAAAAAAAAAAAAAAAAAAAAAAAAAAAAAAAAAAAAAAAAAAAAAAAAAAAAAAAAAAAAAAAAAAAAAAAAAAAAAAAAAAAAAAAAAAAAAAAAAAAAAAAAAAAAAAAAAAAAAAAAAAAAAAAAAAAAAAAAAAAAAAAAAAAAAAAAAAAAAAAAAAAAAAAAAAAAAAAAAAAAAAAAAAAAAAAAAAAAAAAAAAAAAAAAAAAAAAAAAAAAAAAAAAAAAAAAAAAAAAAAAAAAAAAAAAAAAAAAAAAAAAAAAAAAAAAAAAAAAAAAAAAAAAAAAAAAAAAAAAAAAAAAAAAAAAAAAAAAAAAAAAAAAAAAAAAAAAAAAAAAAAAAAAAAAAAAAAAAAAAAAAAAAAAAAAAAAAAAAAAAAAAAAAAAAAAAAAAAAAAAAAAAAAAAAAAAAAAAAAAAAAAAAAAAAAAAAAAAAAAAAAAAAAAAAAAAAAAAAAAAAAAAAAAAAAAAAAAAAAAAAAAAAAAAAAAAAAAAAAAAAAAAAAAAAAAAAAAAAAAAAAAAAAAAAAAAAAAAAAAAAAAAAAAAAAAAAAAAAAAAAAAAAAAAAAAAAAAAAAAAAAAAAAAAAAAAAAAAAAAAAAAAAAAAAAAAAAAAAAAAAAAAAAAAAAAAAAAAAAAAAAAAAAAAAAAAAAAAAAAAAAAAAAAAAAAAAAAAAAAAAAAAAAAAAAAAAAAAAAAAAAAAAAAAAAAAAAAAAAAAAAAAAAAAAAAAAAAAAAAAAAAAAAAAAAAAAAAAAAAAAAAAAAAAAAAAAAAAAAAAAAAAAAAAAAAAAAAAAAAAAAAAAAAAAAAAAAAAAAAAAAAAAAAAAAAAAAAAAAAAAAAAAAAAAAAAAAAAAAAAAAAAAAAAAAAAAAAAAAAAAAAAAAAAAAAAAAAAAAAAAAAAAAAAAAAAAAAAAAAAAAAAAAAAAAAAAAAAAAAAAAAAAAAAAAAAAAAAAAAAAAAAAAAAAAAAAAAAAAAAAAAAAAAAAAAAAAAAAAAAAAAAAAAAAAAAAAAAAAAAAAAAAAAAAAAAAAAAAAAAAAAAAAAAAAAAAAAAAAAAAAAAAAAAAAAAAAAAAAAAAAAAAAAAAAAAAAAAAAAAAAAAAAAAAAAAAAAAAAAAAAAAAAAAAAAAAAAAAAAAAAAAAAAAAAAAAAAAAAAAAAAAAAAAAAAAAAAAAAAAAAAAAAAAAAAAAAAAAAAAAAAAAAAAAAAAAAAAAAAAAAAAAAAAAAAAAAAAAAAAAAAAAAAAAAAAAAAAAAAAAAAAAAAAAAAAAAAAAAAAAAAAAAAAAAAAAAAAAAAAAAAAAAAAAAAAAAAAAAAAAAAAAAAAAAAAAAAAAAAAAAAAAAAAAAAAAAAAAAAAAAAAAAAAAAAAAAAAAAAAAAAAAAAAAAAAAAAAAAAAAAAAAAAAAAAAAAAAAAAAAAAAAAAAAAAAAAAAAAAAAAAAAAAAAAAAAAAAAAAAAAAAAAAAAAAAAAAAAAAAAAAAAAAAAAAAAAAAAAAAAAAAAAAAAAAAAAAAAAAAAAAAAAAAAAAAAAAAAAAAAAAAAAAAAAAAAAAAAAAAAAAAAAAAAAAAAAAAAAAAAAAAAAAAAAAAAAAAAAAAAAAAAAAAAAAAAAAAAAAAAAAAAAAAAAAAAAAAAAAAAAAAAAAAAAAAAAAAAAAAAAAAAAAAAAAAAAAAAAAAAAAAAAAAAAAAAAAAAAAAAAAAAAAAAAAAAAAAAAAAAAAAAAAAAAAAAAAAAAAAAAAAAAAAAAAAAAAAAAAAAAAAAAAAAAAAAAAAAAAAAAAAAAAAAAAAAAAAAAAAAAAAAAAAAAAAAAAAAAAAAAAAAAAAAAAAAAAAAAAAAAAAAAAAAAAAAAAAAAAAAAAAAAAAAAAAAAAAAAAAAAAAAAAAAAAAAAAAAAAAAAAAAAAAAAAAAAAAAAAAAAAAAAAAAAAAAAAAAAAAAAAAAAAAAAAAAAAAAAAAAAAAAAAAAAAAAAAAAAAAAAAAAAAAAAAAAAAAAAAAAAAAAAAAAAAAAAAAAAAAAAAAAAAAAAAAAAAAAAAAAAAAAAAAAAAAAAAAAAAAAAAAAAAAAAAAAAAAAAAAAAAAAAAAAAAAAAAAAAAAAAAAAAAAAAAAAAAAAAAAAAAAAAAAAAAAAAAAAAAAAAAAAAAAAAAAAAAAAAAAAAAAAAAAAAAAAAAAAAAAAAAAAAAAAAAAAAAAAAAAAAAAAAAAAAAAAAAAAAAAAAAAAAAAAAAAAAAAAAAAAAAAAAAAAAAAAAAAAAAAAAAAAAAAAAAAAAAAAAAAAAAAAAAAAAAAAAAAAAAAAAAAAAAAAAAAAAAAAAAAAAAAAAAAAAAAAAAAAAAAAAAAAAAAAAAAAAAAAAAAAAAAAAAAAAAAAAAAAAAAAAAAAAAAAAAAAAAAAAAAAAAAAAAAAAAAAAAAAAAAAAAAAAAAAAAAAAAAAAAAAAAAAAAAAAAAAAAAAAAAAAAAAAAAAAAAAAAAAAAAAAAAAAAAAAAAAAAAAAAAAAAAAAAAAAAAAAAAAAAAAAAAAAAAAAAAAAAAAAAAAAAAAAAAAAAAAAAAAAAAAAAAAAAAAAAAAAAAAAAAAAAAAAAAAAAAAAAAAAAAAAAAAAAAAAAAAAAAAAAAAAAAAAAAAAAAAAAAAAAAAAAAAAAAAAAAAAAAAAAAAAAAAAAAAAAAAAAAAAAAAAAAAAAAAAAAAAAAAAAAAAAAAAAAAAAAAAAAAAAAAAAAAAAAAAAAAAAAAAAAAAAAAAAAAAAAAAAAAAAAAAAAAAAAAAAAAAAAAAAAAAAAAAAAAAAAAAAAAAAAAAAAAAAAAAAAAAAAAAAAAAAAAAAAAAAAAAAAAAAAAAAAAAAAAAAAAAAAAAAAAAAAAAAAAAAAAAAAAAAAAAAAAAAAAAAAAAAAAAAAAAAAAAAAAAAAAAAAAAAAAAAAAAAAAAAAAAAAAAAAAAAAAAAAAAAAAAAAAAAAAAAAAAAAAAAAAAAAAAAAAAAAAAAAAAAAAAAAAAAAAAAAAAAAAAAAAAAAAAAAAAAAAAAAAAAAAAAAAAAAAAAAAAAAAAAAAAAAAAAAAAAAAAAAAAAAAAAAAAAAAAAAAAAAAAAAAAAAAAAAAAAAAAAAAAAAAAAAAAAAAAAAAAAAAAAAAAAAAAAAAAAAAAAAAAAAAAAAAAAAAAAAAAAAAAAAAAAAAAAAAAAAAAAAAAAAAAAAAAAAAAAAAAAAAAAAAAAAAAAAAAAAAAAAAAAAAAAAAAAAAAAAAAAAAAAAAAAAAAAAAAAAAAAAAAAAAAAAAAAAAAAAAAAAAAAAAAAAAAAAAAAAAAAAAAAAAAAAAAAAAAAAAAAAAAAAAAAAAAAAAAAAAAAAAAAAAAAAAAAAAAAAAAAAAAAAAAAAAAAAAAAAAAAAAAAAAAAAAAAAAAAAAAAAAAAAAAAAAAAAAAAAAAAAAAAAAAAAAAAAAAAAAAAAAAAAAAAAAAAAAAAAAAAAAAAAAAAAAAAAAAAAAAAAAAAAAAAAAAAAAAAAAAAAAAAAAAAAAAAAAAAAAAAAAAAAAAAAAAAAAAAAAAAAAAAAAAAAAAAAAAAAAAAAAAAAAAAAAAAAAAAAAAAAAAAAAAAAAAAAAAAAAAAAAAAAAAAAAAAAAAAAAAAAAAAAAAAAAAAAAAAAAAAAAAAAAAAAAAAAAAAAAAAAAAAAAAAAAAAAAAAAAAAAAAAAAAAAAAAAAAAAAAAAAAAAAAAAAAAAAAAAAAAAAAAAAAAAAAAAAAAAAAAAAAAAAAAAAAAAAAAAAAAAAAAAAAAAAAAAAAAAAAAAAAAAAAAAAAAAAAAAAAAAAAAAAAAAAAAAAAAAAAAAAAAAAAAAAAAAAAAAAAAAAAAAAAAAAAAAAAAAAAAAAAAAAAAAAAAAAAAAAAAAAAAAAAAAAAAAAAAAAAAAAAAAAAAAAAAAAAAAAAAAAAAAAAAAAAAAAAAAAAAAAAAAAAAAAAAAAAAAAAAAAAAAAAAAAAAAAAAAAAAAAAAAAAAAAAAAAAAAAAAAAAAAAAAAAAAAAAAAAAAAAAAAAAAAAAAAAAAAAAAAAAAAAAAAAAAAAAAAAAAAAAAAAAAAAAAAAAAAAAAAAAAAAAAAAAAAAAAAAAAAAAAAAAAAAAAAAAAAAAAAAAAAAAAAAAAAAAAAAAAAAAAAAAAAAAAAAAAAAAAAAAAAAAAAAAAAAAAAAAAAAAAAAAAAAAAAAAAAAAAAAAAAAAAAAAAAAAAAAAAAAAAAAAAAAAAAAAAAAAAAAAAAAAAAAAAAAAAAAAAAAAAAAAAAAAAAAAAAAAAAAAAAAAAAAAAAAAAAAAAAAAAAAAAAAAAAAAAAAAAAAAAAAAAAAAAAAAAAAAAAAAAAAAAAAAAAAAAAAAAAAAAAAAAAAAAAAAAAAAAAAAAAAAAAAAAAAAAAAAAAAAAAAAAAAAAAAAAAAAAAAAAAAAAAAAAAAAAAAAAAAAAAAAAAAAAAAAAAAAAAAAAAAAAAAAAAAAAAAAAAAAAAAAAAAAAAAAAAAAAAAAAAAAAAAAAAAAAAAAAAAAAAAAAAAAAAAAAAAAAAAAAAAAAAAAAAAAAAAAAAAAAAAAAAAAAAAAAAAAAAAAAAAAAAAAAAAAAAAAAAAAAAAAAAAAAAAAAAAAAAAAAAAAAAAAAAAAAAAAAAAAAAAAAAAAAAAAAAAAAAAAAAAAAAAAAAAAAAAAAAAAAAAAAAAAAAAAAAAAAAAAAAAAAAAAAAAAAAAAAAAAAAAAAAAAAAAAAAAAAAAAAAAAAAAAAAAAAAAAAAAAAAAAAAAAAAAAAAAAAAAAAAAAAAAAAAAAAAAAAAAAAAAAAAAAAAAAAAAAAAAAAAAAAAAAAAAAAAAAAAAAAAAAAAAAAAAAAAAAAAAAAAAAAAAAAAAAAAAAAAAAAAAAAAAAAAAAAAAAAAAAAAAAAAAAAAAAAAAAAAAAAAAAAAAAAAAAAAAAAAAAAAAAAAAAAAAAAAAAAAAAAAAAAAAAAAAAAAAAAAAAAAAAAAAAAAAAAAAAAAAAAAAAAAAAAAAAAAAAAAAAAAAAAAAAAAAAAAAAAAAAAAAAAAAAAAAAAAAAAAAAAAAAAAAAAAAAAAAAAAAAAAAAAAAAAAAAAAAAAAAAAAAAAAAAAAAAAAAAAAAAAAAAAAAAAAAAAAAAAAAAAAAAAAAAAAAAAAAAAAAAAAAAAAAAAAAAAAAAAAAAAAAAAAAAAAAAAAAAAAAAAAAAAAAAAAAAAAAAAAAAAAAAAAAAAAAAAAAAAAAAAAAAAAAAAAAAAAAAAAAAAAAAAAAAAAAAAAAAAAAAAAAAAAAAAAAAAAAAAAAAAAAAAAAAAAAAAAAAAAAAAAAAAAAAAAAAAAAAAAAAAAAAAAAAAAAAAAAAAAAAAAAAAAAAAAAAAAAAAAAAAAAAAAAAAAAAAAAAAAAAAAAAAAAAAAAAAAAAAAAAAAAAAAAAAAAAAAAAAAAAAAAAAAAAAAAAAAAAAAAAAAAAAAAAAAAAAAAAAAAAAAAAAAAAAAAAAAAAAAAAAAAAAAAAAAAAAAAAAAAAAAAAAAAAAAAAAAAAAAAAAAAAAAAAAAAAAAAAAAAAAAAAAAAAAAAAAAAAAAAAAAAAAAAAAAAAAAAAAAAAAAAAAAAAAAAAAAAAAAAAAAAAAAAAAAAAAAAAAAAAAAAAAAAAAAAAAAAAAAAAAAAAAAAAAAAAAAAAAAAAAAAAAAAAAAAAAAAAAAAAAAAAAAAAAAAAAAAAAAAAAAAAAAAAAAAAAAAAAAAAAAAAAAAAAAAAAAAAAAAAAAAAAAAAAAAAAAAAAAAAAAAAAAAAAAAAAAAAAAAAAAAAAAAAAAAAAAAAAAAAAAAAAAAAAAAAAAAAAAAAAAAAAAAAAAAAAAAAAAAAAAAAAAAAAAAAAAAAAAAAAAAAAAAAAAAAAAAAAAAAAAAAAAAAAAAAAAAAAAAAAAAAAAAAAAAAAAAAAAAAAAAAAAAAAAAAAAAAAAAAAAAAAAAAAAAAAAAAAAAAAAAAAAAAAAAAAAAAAAAAAAAAAAAAAAAAAAAAAAAAAAAAAAAAAAAAAAAAAAAAAAAAAAAAAAAAAAAAAAAAAAAAAAAAAAAAAAAAAAAAAAAAAAAAAAAAAAAAAAAAAAAAAAAAAAAAAAAAAAAAAAAAAAAAAAAAAAAAAAAAAAAAAAAAAAAAAAAAAAAAAAAAAAAAAAAAAAAAAAAAAAAAAAAAAAAAAAAAAAAAAAAAAAAAAAAAAAAAAAAAAAAAAAAAAAAAAAAAAAAAAAAAAAAAAAAAAAAAAAAAAAAAAAAAAAAAAAAAAAAAAAAAAAAAAAAAAAAAAAAAAAAAAAAAAAAAAAAAAAAAAAAAAAAAAAAAAAAAAAAAAAAAAAAAAAAAAAAAAAAAAAAAAAAAAAAAAAAAAAAAAAAAAAAAAAAAAAAAAAAAAAAAAAAAAAAAAAAAAAAAAAAAAAAAAAAAAAAAAAAAAAAAAAAAAAAAAAAAAAAAAAAAAAAAAAAAAAAAAAAAAAAAAAAAAAAAAAAAAAAAAAAAAAAAAAAAAAAAAAAAAAAAAAAAAAAAAAAAAAAAAAAAAAAAAAAAAAAAAAAAAAAAAAAAAAAAAAAAAAAAAAAAAAAAAAAAAAAAAAAAAAAAAAAAAAAAAAAAAAAAAAAAAAAAAAAAAAAAAAAAAAAAAAAAAAAAAAAAAAAAAAAAAAAAAAAAAAAAAAAAAAAAAAAAAAAAAAAAAAAAAAAAAAAAAAAAAAAAAAAAAAAAAAAAAAAAAAAAAAAAAAAAAAAAAAAAAAAAAAAAAAAAAAAAAAAAAAAAAAAAAAAAAAAAAAAAAAAAAAAAAAAAAAAAAAAAAAAAAAAAAAAAAAAAAAAAAAAAAAAAAAAAAAAAAAAAAAAAAAAAAAAAAAAAAAAAAAAAAAAAAAAAAAAAAAAAAAAAAAAAAAAAAAAAAAAAAAAAAAAAAAAAAAAAAAAAAAAAAAAAAAAAAAAAAAAAAAAAAAAAAAAAAAAAAAAAAAAAAAAAAAAAAAAAAAAAAAAAAAAAAAAAAAAAAAAAAAAAAAAAAAAAAAAAAAAAAAAAAAAAAAAAAAAAAAAAAAAAAAAAAAAAAAAAAAAAAAAAAAAAAAAAAAAAAAAAAAAAAAAAAAAAAAAAAAAAAAAAAAAAAAAAAAAAAAAAAAAAAAAAAAAAAAAAAAAAAAAAAAAAAAAAAAAAAAAAAAAAAAAAAAAAAAAAAAAAAAAAAAAAAAAAAAAAAAAAAAAAAAAAAAAAAAAAAAAAAAAAAAAAAAAAAAAAAAAAAAAAAAAAAAAAAAAAAAAAAAAAAAAAAAAAAAAAAAAAAAAAAAAAAAAAAAAAAAAAAAAAAAAAAAAAAAAAAAAAAAAAAAAAAAAAAAAAAAAAAAAAAAAAAAAAAAAAAAAAAAAAAAAAAAAAAAAAAAAAAAAAAAAAAAAAAAAAAAAAAAAAAAAAAAAAAAAAAAAAAAAAAAAAAAAAAAAAAAAAAAAAAAAAAAAAAAAAAAAAAAAAAAAAAAAAAAAAAAAAAAAAAAAAAAAAAAAAAAAAAAAAAAAAAAAAAAAAAAAAAAAAAAAAAAAAAAAAAAAAAAAAAAAAAAAAAAAAAAAAAAAAAAAAAAAAAAAAAAAAAAAAAAAAAAAAAAAAAAAAAAAAAAAAAAAAAAAAAAAAAAAAAAAAAAAAAAAAAAAAAAAAAAAAAAAAAAAAAAAAAAAAAAAAAAAAAAAAAAAAAAAAAAAAAAAAAAAAAAAAAAAAAAAAAAAAAAAAAAAAAAAAAAAAAAAAAAAAAAAAAAAAAAAAAAAAAAAAAAAAAAAAAAAAAAAAAAAAAAAAAAAAAAAAAAAAAAAAAAAAAAAAAAAAAAAAAAAAAAAAAAAAAAAAAAAAAAAAAAAAAAAAAAAAAAAAAAAAAAAAAAAAAAAAAAAAAAAAAAAAAAAAAAAAAAAAAAAAAAAAAAAAAAAAAAAAAAAAAAAAAAAAAAAAAAAAAAAAAAAAAAAAAAAAAAAAAAAAAAAAAAAAAAAAAAAAAAAAAAAAAAAAAAAAAAAAAAAAAAAAAAAAAAAAAAAAAAAAAAAAAAAAAAAAAAAAAAAAAAAAAAAAAAAAAAAAAAAAAAAAAAAAAAAAAAAAAAAAAAAAAAAAAAAAAAAAAAAAAAAAAAAAAAAAAAAAAAAAAAAAAAAAAAAAAAAAAAAAAAAAAAAAAAAAAAAAAAAAAAAAAAAAAAAAAAAAAAAAAAAAAAAAAAAAAAAAAAAAAAAAAAAAAAAAAAAAAAAAAAAAAAAAAAAAAAAAAAAAAAAAAAAAAAAAAAAAAAAAAAAAAAAAAAAAAAAAAAAAAAAAAAAAAAAAAAAAAAAAAAAAAAAAAAAAAAAAAAAAAAAAAAAAAAAAAAAAAAAAAAAAAAAAAAAAAAAAAAAAAAAAAAAAAAAAAAAAAAAAAAAAAAAAAAAAAAAAAAAAAAAAAAAAAAAAAAAAAAAAAAAAAAAAAAAAAAAAAAAAAAAAAAAAAAAAAAAAAAAAAAAAAAAAAAAAAAAAAAAAAAAAAAAAAAAAAAAAAAAAAAAAAAAAAAAAAAAAAAAAAAAAAAAAAAAAAAAAAAAAAAAAAAAAAAAAAAAAAAAAAAAAAAAAAAAAAAAAAAAAAAAAAAAAAAAAAAAAAAAAAAAAAAAAAAAAAAAAAAAAAAAAAAAAAAAAAAAAAAAAAAAAAAAAAAAAAAAAAAAAAAAAAAAAAAAAAAAAAAAAAAAAAAAAAAAAAAAAAAAAAAAAAAAAAAAAAAAAAAAAAAAAAAAAAAAAAAAAAAAAAAAAAAAAAAAAAAAAAAAAAAAAAAAAAAAAAAAAAAAAAAAAAAAAAAAAAAAAAAAAAAAAAAAAAAAAAAAAAAAAAAAAAAAAAAAAAAAAAAAAAAAAAAAAAAAAAAAAAAAAAAAAAAAAAAAAAAAAAAAAAAAAAAAAAAAAAAAAAAAAAAAAAAAAAAAAAAAAAAAAAAAAAAAAAAAAAAAAAAAAAAAAAAAAAAAAAAAAAAAAAAAAAAAAAAAAAAAAAAAAAAAAAAAAAAAAAAAAAAAAAAAAAAAAAAAAAAAAAAAAAAAAAAAAAAAAAAAAAAAAAAAAAAAAAAAAAAAAAAAAAAAAAAAAAAAAAAAAAAAAAAAAAAAAAAAAAAAAAAAAAAAAAAAAAAAAAAAAAAAAAAAAAAAAAAAAAAAAAAAAAAAAAAAAAAAAAAAAAAAAAAAAAAAAAAAAAAAAAAAAAAAAAAAAAAAAAAAAAAAAAAAAAAAAAAAAAAAAAAAAAAAAAAAAAAAAAAAAAAAAAAAAAAAAAAAAAAAAAAAAAAAAAAAAAAAAAAAAAAAAAAAAAAAAAAAAAAAAAAAAAAAAAAAAAAAAAAAAAAAAAAAAAAAAAAAAAAAAAAAAAAAAAAAAAAAAAAAAAAAAAAAAAAAAAAAAAAAAAAAAAAAAAAAAAAAAAAAAAAAAAAAAAAAAAAAAAAAAAAAAAAAAAAAAAAAAAAAAAAAAAAAAAAAAAAAAAAAAAAAAAAAAAAAAAAAAAAAAAAAAAAAAAAAAAAAAAAAAAAAAAAAAAAAAAAAAAAAAAAAAAAAAAAAAAAAAAAAAAAAAAAAAAAAAAAAAAAAAAAAAAAAAAAAAAAAAAAAAAAAAAAAAAAAAAAAAAAAAAAAAAAAAAAAAAAAAAAAAAAAAAAAAAAAAAAAAAAAAAAAAAAAAAAAAAAAAAAAAAAAAAAAAAAAAAAAAAAAAAAAAAAAAAAAAAAAAAAAAAAAAAAAAAAAAAAAAAAAAAAAAAAAAAAAAAAAAAAAAAAAAAAAAAAAAAAAAAAAAAAAAAAAAAAAAAAAAAAAAAAAAAAAAAAAAAAAAAAAAAAAAAAAAAAAAAAAAAAAAAAAAAAAAAAAAAAAAAAAAAAAAAAAAAAAAAAAAAAAAAAAAAAAAAAAAAAAAAAAAAAAAAAAAAAAAAAAAAAAAAAAAAAAAAAAAAAAAAAAAAAAAAAAAAAAAAAAAAAAAAAAAAAAAAAAAAAAAAAAAAAAAAAAAAAAAAAAAAAAAAAAAAAAAAAAAAAAAAAAAAAAAAAAAAAAAAAAAAAAAAAAAAAAAAAAAAAAAAAAAAAAAAAAAAAAAAAAAAAAAAAAAAAAAAAAAAAAAAAAAAAAAAAAAAAAAAAAAAAAAAAAAAAAAAAAAAAAAAAAAAAAAAAAAAAAAAAAAAAAAAAAAAAAAAAAAAAAAAAAAAAAAAAAAAAAAAAAAAAAAAAAAAAAAAAAAAAAAAAAAAAAAAAAAAAAAAAAAAAAAAAAAAAAAAAAAAAAAAAAAAAAAAAAAAAAAAAAAAAAAAAAAAAAAAAAAAAAAAAAAAAAAAAAAAAAAAAAAAAAAAAAAAAAAAAAAAAAAAAAAAAAAAAAAAAAAAAAAAAAAAAAAAAAAAAAAAAAAAAAAAAAAAAAAAAAAAAAAAAAAAAAAAAAAAAAAAAAAAAAAAAAAAAAAAAAAAAAAAAAAAAAAAAAAAAAAAAAAAAAAAAAAAAAAAAAAAAAAAAAAAAAAAAAAAAAAAAAAAAAAAAAAAAAAAAAAAAAAAAAAAAAAAAAAAAAAAAAAAAAAAAAAAAAAAAAAAAAAAAAAAAAAAAAAAAAAAAAAAAAAAAAAAAAAAAAAAAAAAAAAAAAAAAAAAAAAAAAAAAAAAAAAAAAAAAAAAAAAAAAAAAAAAAAAAAAAAAAAAAAAAAAAAAAAAAAAAAAAAAAAAAAAAAAAAAAAAAAAAAAAAAAAAAAAAAAAAAAAAAAAAAAAAAAAAAAAAAAAAAAAAAAAAAAAAAAAAAAAAAAAAAAAAAAAAAAAAAAPZZAgAD+9OTDujcCQ9TnF81buJH8RSRzZp89pEH6snAb3FldSrqkkXDtW/CzVuI1e4ecwPnkF2SHB9Ypt1l4C94cpvFm4qav9zTB+rIqRPk20QYIqlRg4bWVWp+uT4JqsDTs/SRyORdjXej0bdMiKConZD3nFiAnknLurtk37m9T11K71xG51c0yOA5GHlP6GfMpSuIuNyqxgfLX8egkeVqBtT2D0rkttWFIEBfVkLHgOwhG51S5a0KKyjFWYlEfiTKzs8c+TPEvm1xGP7XfTecfXO0ToV33Ga8OBUGbj/FfEBP7xa5s+r9lmLXN1xvUzQJf5x4i7/PjhnOs57W17oQj4lGwFOD5LN34+RuTzOGDAxp1vOguBmlUVQa3OT03Z+b+q9XGwRGel9+ATK35N1u0uOI0gfmxVlea9bj9xb/rBAVFChBz2sZmg2hpgixo6b4JRuO9r1Ro9L/drJHzVKU1zPGmep//f/tXjXvQT027+v3G+AqPeBwX7yynS+mdv6bVbEy8wWIM/P8D7wW6TIX72H3V0B3ZTeqQyixoE2aVwxsGfEba+nsw0xS1f3AHQqmfvVn5dYyv77Ho0nuTwreHePDc/+Gcq5KOE/i1hsmF0/3GAZZCtyYULUfUN3gTVUHpmL4/kKomCtqHH6iPLh26hdQldCS7568RRkMftRf2Z0NMQ==</manifest><ContainsAiGeneratedContent>Yes</ContainsAiGeneratedContent></metadata><defs><filter x="0%" y="0%" width="100%" height="100%" id="230b18d6e2"><feColorMatrix values="0 0 0 0 1 0 0 0 0 1 0 0 0 0 1 0 0 0 1 0" color-interpolation-filters="sRGB"></feColorMatrix></filter><filter x="0%" y="0%" width="100%" height="100%" id="1b707c7659"><feColorMatrix values="0 0 0 0 1 0 0 0 0 1 0 0 0 0 1 0.2126 0.7152 0.0722 0 0" color-interpolation-filters="sRGB"></feColorMatrix></filter><g></g><clipPath id="3917aaee2f"><path d="M 0 423.886719 L 608.25 423.886719 L 608.25 1076.386719 L 0 1076.386719 Z M 0 423.886719 " clip-rule="nonzero"></path></clipPath><mask id="472bdc033e"><g filter="url(#230b18d6e2)"><g filter="url(#1b707c7659)" transform="matrix(0.620716, 0, 0, 0.621269, -3.698955, 417.12568)"><image x="0" y="0" width="992" height="1072" preserveAspectRatio="xMidYMid meet"></image></g></g></mask><clipPath id="fbd9522d2d"><rect x="0" width="823" y="0" height="225"></rect></clipPath></defs><g clip-path="url(#3917aaee2f)"><g mask="url(#472bdc033e)"><g transform="matrix(0.620716, 0, 0, 0.621269, -3.698955, 417.12568)"><image x="0" y="0" width="992" height="1072" preserveAspectRatio="xMidYMid meet"></image></g></g></g><g transform="matrix(1, 0, 0, 1, 608, 637)"><g clip-path="url(#fbd9522d2d)"><g fill="#0419ea" fill-opacity="1"><g transform="translate(0.432268, 171.173098)"><g><path d="M 55.609375 -103.546875 L 71.984375 -103.546875 C 84.046875 -103.546875 93.890625 -101.925781 101.515625 -98.6875 C 109.148438 -95.457031 114.800781 -90.003906 118.46875 -82.328125 C 122.132812 -74.660156 123.96875 -64.113281 123.96875 -50.6875 C 123.96875 -37.269531 122.132812 -26.722656 118.46875 -19.046875 C 114.800781 -11.367188 109.148438 -5.910156 101.515625 -2.671875 C 93.890625 0.554688 84.046875 2.171875 71.984375 2.171875 L 55.609375 2.171875 C 43.640625 2.171875 33.816406 0.554688 26.140625 -2.671875 C 18.460938 -5.910156 12.789062 -11.367188 9.125 -19.046875 C 5.457031 -26.722656 3.625 -37.269531 3.625 -50.6875 C 3.625 -64.113281 5.457031 -74.660156 9.125 -82.328125 C 12.789062 -90.003906 18.460938 -95.457031 26.140625 -98.6875 C 33.816406 -101.925781 43.640625 -103.546875 55.609375 -103.546875 Z M 55.609375 -16.21875 L 71.984375 -16.21875 C 80.285156 -16.21875 86.726562 -17.300781 91.3125 -19.46875 C 95.894531 -21.644531 99.101562 -25.242188 100.9375 -30.265625 C 102.78125 -35.285156 103.703125 -42.09375 103.703125 -50.6875 C 103.703125 -59.28125 102.78125 -66.085938 100.9375 -71.109375 C 99.101562 -76.128906 95.894531 -79.722656 91.3125 -81.890625 C 86.726562 -84.066406 80.285156 -85.15625 71.984375 -85.15625 L 55.609375 -85.15625 C 47.398438 -85.15625 41.003906 -84.066406 36.421875 -81.890625 C 31.835938 -79.722656 28.601562 -76.128906 26.71875 -71.109375 C 24.832031 -66.085938 23.890625 -59.28125 23.890625 -50.6875 C 23.890625 -42.09375 24.832031 -35.285156 26.71875 -30.265625 C 28.601562 -25.242188 31.835938 -21.644531 36.421875 -19.46875 C 41.003906 -17.300781 47.398438 -16.21875 55.609375 -16.21875 Z M 55.609375 -16.21875 "></path></g></g></g><g fill="#0419ea" fill-opacity="1"><g transform="translate(128.024911, 171.173098)"><g><path d="M 127.890625 -84.875 L 130.484375 -84.875 C 138.210938 -84.875 144.632812 -83.617188 149.75 -81.109375 C 154.863281 -78.597656 158.722656 -74.347656 161.328125 -68.359375 C 163.941406 -62.367188 165.25 -54.160156 165.25 -43.734375 L 165.25 0 L 145.984375 0 L 145.984375 -43.734375 C 145.984375 -52.617188 144.4375 -58.941406 141.34375 -62.703125 C 138.257812 -66.472656 133 -68.359375 125.5625 -68.359375 L 121.21875 -68.359375 C 116.289062 -68.359375 111.941406 -67.488281 108.171875 -65.75 C 104.410156 -64.007812 101.46875 -61.160156 99.34375 -57.203125 C 97.226562 -53.242188 96.171875 -47.9375 96.171875 -41.28125 L 96.171875 0 L 76.90625 0 L 76.90625 -43.734375 C 76.90625 -52.617188 75.359375 -58.941406 72.265625 -62.703125 C 69.179688 -66.472656 63.921875 -68.359375 56.484375 -68.359375 L 52.140625 -68.359375 C 47.210938 -68.359375 42.863281 -67.488281 39.09375 -65.75 C 35.332031 -64.007812 32.390625 -61.160156 30.265625 -57.203125 C 28.140625 -53.242188 27.078125 -47.9375 27.078125 -41.28125 L 27.078125 0 L 7.671875 0 L 7.671875 -82.703125 L 25.0625 -82.703125 L 25.0625 -65.03125 C 28.34375 -72.457031 33.023438 -77.617188 39.109375 -80.515625 C 45.191406 -83.421875 51.753906 -84.875 58.796875 -84.875 L 61.40625 -84.875 C 69.519531 -84.875 76.132812 -83.160156 81.25 -79.734375 C 86.363281 -76.304688 89.835938 -70.296875 91.671875 -61.703125 C 93.796875 -67.492188 96.71875 -72.078125 100.4375 -75.453125 C 104.15625 -78.835938 108.40625 -81.253906 113.1875 -82.703125 C 117.96875 -84.148438 122.867188 -84.875 127.890625 -84.875 Z M 127.890625 -84.875 "></path></g></g></g><g fill="#0419ea" fill-opacity="1"><g transform="translate(301.09325, 171.173098)"><g><path d="M 105.875 -46.640625 L 105.875 -35.921875 L 25.203125 -35.921875 C 25.773438 -27.898438 27.992188 -22.222656 31.859375 -18.890625 C 35.722656 -15.566406 42.191406 -13.90625 51.265625 -13.90625 L 63.140625 -13.90625 C 71.734375 -13.90625 77.835938 -15.300781 81.453125 -18.09375 C 85.078125 -20.894531 86.890625 -24.757812 86.890625 -29.6875 L 105.875 -29.6875 C 105.875 -18.101562 102.25 -9.894531 95 -5.0625 C 87.757812 -0.238281 77.140625 2.171875 63.140625 2.171875 L 49.09375 2.171875 C 39.25 2.171875 31.164062 0.894531 24.84375 -1.65625 C 18.519531 -4.21875 13.835938 -8.660156 10.796875 -14.984375 C 7.753906 -21.304688 6.234375 -30.070312 6.234375 -41.28125 C 6.234375 -52.476562 7.753906 -61.238281 10.796875 -67.5625 C 13.835938 -73.882812 18.519531 -78.347656 24.84375 -80.953125 C 31.164062 -83.566406 39.25 -84.875 49.09375 -84.875 L 63.140625 -84.875 C 72.410156 -84.875 80.234375 -83.738281 86.609375 -81.46875 C 92.984375 -79.195312 97.785156 -75.285156 101.015625 -69.734375 C 104.253906 -64.179688 105.875 -56.484375 105.875 -46.640625 Z M 25.203125 -46.640625 L 86.890625 -46.640625 C 86.890625 -54.835938 84.863281 -60.578125 80.8125 -63.859375 C 76.757812 -67.148438 70.242188 -68.796875 61.265625 -68.796875 L 51.265625 -68.796875 C 42.191406 -68.796875 35.722656 -67.128906 31.859375 -63.796875 C 27.992188 -60.460938 25.773438 -54.742188 25.203125 -46.640625 Z M 25.203125 -46.640625 "></path></g></g></g><g fill="#0419ea" fill-opacity="1"><g transform="translate(413.189404, 171.173098)"><g><path d="M 82.703125 -69.515625 L 82.703125 -82.703125 L 102.109375 -82.703125 L 102.109375 -8.109375 C 102.109375 1.542969 100.753906 9.050781 98.046875 14.40625 C 95.347656 19.769531 91.171875 23.515625 85.515625 25.640625 C 79.867188 27.765625 72.507812 28.828125 63.4375 28.828125 L 12.015625 28.828125 L 12.015625 12.3125 L 63.4375 12.3125 C 68.550781 12.3125 72.484375 11.707031 75.234375 10.5 C 77.984375 9.289062 79.914062 7.1875 81.03125 4.1875 C 82.144531 1.195312 82.703125 -2.898438 82.703125 -8.109375 L 82.703125 -16.515625 C 79.128906 -10.910156 74.347656 -6.945312 68.359375 -4.625 C 62.367188 -2.3125 55.660156 -1.15625 48.234375 -1.15625 L 45.625 -1.15625 C 37.21875 -1.15625 30.070312 -2.429688 24.1875 -4.984375 C 18.300781 -7.546875 13.835938 -11.867188 10.796875 -17.953125 C 7.753906 -24.035156 6.234375 -32.390625 6.234375 -43.015625 C 6.234375 -53.628906 7.753906 -61.976562 10.796875 -68.0625 C 13.835938 -74.144531 18.300781 -78.46875 24.1875 -81.03125 C 30.070312 -83.59375 37.21875 -84.875 45.625 -84.875 L 48.234375 -84.875 C 55.660156 -84.875 62.367188 -83.738281 68.359375 -81.46875 C 74.347656 -79.195312 79.128906 -75.210938 82.703125 -69.515625 Z M 49.671875 -17.671875 L 56.484375 -17.671875 C 65.554688 -17.671875 72.191406 -19.648438 76.390625 -23.609375 C 80.597656 -27.566406 82.703125 -34.035156 82.703125 -43.015625 C 82.703125 -51.992188 80.597656 -58.460938 76.390625 -62.421875 C 72.191406 -66.378906 65.554688 -68.359375 56.484375 -68.359375 L 49.671875 -68.359375 C 40.890625 -68.359375 34.59375 -66.378906 30.78125 -62.421875 C 26.96875 -58.460938 25.0625 -51.992188 25.0625 -43.015625 C 25.0625 -34.035156 26.96875 -27.566406 30.78125 -23.609375 C 34.59375 -19.648438 40.890625 -17.671875 49.671875 -17.671875 Z M 49.671875 -17.671875 "></path></g></g></g><g fill="#0419ea" fill-opacity="1"><g transform="translate(522.968343, 171.173098)"><g><path d="M 48.234375 -84.875 L 63.296875 -84.875 C 72.941406 -84.875 80.734375 -83.617188 86.671875 -81.109375 C 92.617188 -78.597656 96.988281 -74.394531 99.78125 -68.5 C 102.582031 -62.613281 103.984375 -54.503906 103.984375 -44.171875 L 103.984375 0 L 84.71875 0 L 84.71875 -15.5 C 82.207031 -9.800781 78.222656 -5.429688 72.765625 -2.390625 C 67.316406 0.648438 60.003906 2.171875 50.828125 2.171875 L 46.203125 2.171875 C 33.265625 2.171875 23.367188 -0.0703125 16.515625 -4.5625 C 9.660156 -9.050781 6.234375 -16.21875 6.234375 -26.0625 C 6.234375 -32.144531 7.726562 -36.707031 10.71875 -39.75 C 13.707031 -42.789062 18.050781 -44.84375 23.75 -45.90625 C 29.445312 -46.96875 36.300781 -47.5 44.3125 -47.5 L 84.578125 -47.5 C 84.390625 -52.8125 83.546875 -57.0625 82.046875 -60.25 C 80.546875 -63.4375 78.15625 -65.726562 74.875 -67.125 C 71.59375 -68.53125 67.054688 -69.234375 61.265625 -69.234375 L 47.9375 -69.234375 C 40.019531 -69.234375 34.5625 -67.851562 31.5625 -65.09375 C 28.570312 -62.34375 27.078125 -59.035156 27.078125 -55.171875 L 8.25 -55.171875 C 8.25 -65.316406 11.53125 -72.800781 18.09375 -77.625 C 24.664062 -82.457031 34.710938 -84.875 48.234375 -84.875 Z M 46.0625 -12.453125 L 57.0625 -12.453125 C 65.945312 -12.453125 72.65625 -14.332031 77.1875 -18.09375 C 81.726562 -21.863281 84.191406 -28.285156 84.578125 -37.359375 L 46.203125 -37.359375 C 38.859375 -37.359375 33.519531 -36.609375 30.1875 -35.109375 C 26.863281 -33.617188 25.203125 -30.601562 25.203125 -26.0625 C 25.203125 -21.53125 26.863281 -18.128906 30.1875 -15.859375 C 33.519531 -13.585938 38.8125 -12.453125 46.0625 -12.453125 Z M 46.0625 -12.453125 "></path></g></g></g><g fill="#0419ea" fill-opacity="1"><g transform="translate(634.630013, 171.173098)"><g></g></g></g><g fill="#0419ea" fill-opacity="1"><g transform="translate(668.374463, 171.173098)"><g><path d="M 123.25 0 L 101.375 0 L 94 -17.234375 L 26.5 -17.234375 L 18.828125 0 L -2.890625 0 L 43.015625 -101.375 L 78.78125 -101.375 Z M 56.921875 -85.296875 L 33.59375 -33.171875 L 87.1875 -33.171875 L 64.890625 -85.296875 Z M 56.921875 -85.296875 "></path></g></g></g><g fill="#0419ea" fill-opacity="1"><g transform="translate(788.725761, 171.173098)"><g><path d="M 27.078125 0 L 6.234375 0 L 6.234375 -101.375 L 27.078125 -101.375 Z M 27.078125 0 "></path></g></g></g></g></g></svg>