<svg xmlns="http://www.w3.org/2000/svg" xmlns:xlink="http://www.w3.org/1999/xlink" width="2000" zoomAndPan="magnify" viewBox="0 0 1500 599.999999" height="800" preserveAspectRatio="xMidYMid meet" version="1.0"><defs><g></g><clipPath id="91aecb0241"><rect x="0" width="1002" y="0" height="277"></rect></clipPath></defs><path fill="#ffffff" d="M 197.019531 176.210938 C 205.429688 167.800781 203.660156 133.71875 202.773438 120.882812 C 202.773438 107.164062 192.59375 95.214844 178.875 93.441406 C 168.695312 91.671875 133.730469 91.671875 125.320312 93.441406 C 85.929688 104.507812 127.089844 178.421875 90.355469 182.847656 C 69.109375 185.503906 30.601562 175.324219 18.652344 196.570312 C 13.34375 206.75 13.34375 237.289062 13.34375 248.351562 C 13.34375 259.417969 20.867188 274.023438 33.703125 275.792969 C 42.996094 277.566406 75.304688 277.566406 84.601562 275.792969 C 128.859375 270.484375 87.257812 190.816406 122.222656 185.503906 C 141.695312 181.964844 181.085938 192.144531 195.25 176.210938 C 195.25 176.210938 197.019531 176.210938 197.019531 176.210938 Z M 197.019531 176.210938 " fill-opacity="1" fill-rule="nonzero"></path><path fill="#ffffff" d="M 226.675781 177.980469 C 239.511719 190.816406 278.460938 183.734375 296.605469 185.503906 C 304.128906 185.503906 312.097656 193.027344 313.425781 200.996094 C 316.964844 220.46875 304.128906 266.5 329.800781 274.910156 C 337.324219 277.566406 378.488281 277.566406 386.898438 274.910156 C 393.535156 274.910156 401.503906 268.269531 403.714844 262.074219 C 409.027344 251.894531 409.027344 205.863281 403.714844 196.570312 C 387.339844 168.683594 336.441406 194.796875 319.621094 176.210938 C 305.902344 160.71875 327.144531 108.933594 302.800781 96.097656 C 294.394531 92.558594 258.542969 92.558594 247.476562 92.558594 C 233.757812 94.328125 221.808594 102.738281 220.035156 116.457031 C 220.035156 124.867188 218.265625 158.949219 220.035156 166.914062 C 220.035156 168.683594 225.347656 176.210938 225.789062 177.09375 Z M 226.675781 177.980469 " fill-opacity="1" fill-rule="nonzero"></path><path fill="#ffffff" d="M 186.839844 244.371094 C 176.660156 246.140625 166.480469 256.320312 164.710938 266.5 C 162.941406 275.792969 162.941406 302.351562 164.710938 312.53125 C 166.480469 326.25 174.007812 336.429688 188.613281 338.203125 L 234.640625 338.203125 C 250.132812 336.429688 257.65625 322.710938 258.542969 309.433594 C 260.3125 291.726562 262.082031 257.648438 243.050781 247.910156 C 233.757812 242.601562 197.90625 242.601562 186.839844 244.371094 Z M 186.839844 244.371094 " fill-opacity="1" fill-rule="nonzero"></path><path fill="#ffffff" d="M 43.4375 305.007812 C 36.800781 305.007812 26.621094 311.644531 23.078125 317.839844 C 17.769531 326.25 17.769531 361.214844 19.539062 372.28125 C 19.539062 381.574219 27.949219 394.410156 38.128906 396.183594 C 58.488281 399.722656 107.171875 386.003906 111.15625 414.769531 C 114.699219 437.785156 100.089844 483.816406 135.058594 487.800781 L 179.316406 487.800781 C 188.613281 487.800781 197.90625 480.277344 203.21875 472.308594 C 208.527344 463.898438 208.527344 430.703125 206.757812 419.640625 C 201.445312 376.265625 139.484375 407.691406 120.007812 391.757812 C 101.417969 376.265625 127.53125 324.480469 99.648438 307.660156 C 90.355469 302.351562 54.503906 302.351562 43.4375 304.121094 C 43.4375 304.121094 43.4375 305.007812 43.4375 305.007812 Z M 43.4375 305.007812 " fill-opacity="1" fill-rule="nonzero"></path><path fill="#ffffff" d="M 337.769531 305.007812 C 288.195312 313.414062 334.226562 392.640625 297.050781 397.066406 C 273.148438 399.722656 224.019531 386.003906 219.59375 420.96875 C 219.59375 432.03125 217.824219 466.996094 224.019531 475.40625 C 229.332031 483.816406 240.394531 488.242188 249.691406 489.128906 C 261.640625 489.128906 293.949219 490.898438 302.359375 484.703125 C 324.488281 471.867188 313.425781 433.804688 316.082031 413 C 320.507812 382.460938 381.585938 407.246094 399.730469 389.984375 C 411.683594 378.921875 409.910156 346.609375 409.027344 331.121094 C 409.027344 321.824219 403.714844 312.53125 395.304688 307.21875 C 386.011719 301.90625 350.160156 301.90625 339.097656 303.679688 L 338.210938 304.5625 Z M 337.769531 305.007812 " fill-opacity="1" fill-rule="nonzero"></path><path fill="#ffffff" d="M 186.839844 244.371094 C 197.90625 242.601562 233.757812 242.601562 243.050781 247.910156 C 261.640625 257.207031 259.871094 291.285156 258.542969 309.433594 C 258.542969 324.039062 250.132812 336.875 234.640625 338.203125 L 188.613281 338.203125 C 174.007812 336.429688 166.480469 326.25 164.710938 312.53125 L 164.710938 266.5 C 166.480469 256.320312 176.660156 246.140625 186.839844 244.371094 Z M 186.839844 244.371094 " fill-opacity="1" fill-rule="nonzero"></path><g transform="matrix(1, 0, 0, 1, 478, 146)"><g clip-path="url(#91aecb0241)"><g fill="#ffffff" fill-opacity="1"><g transform="translate(0.248174, 211.053)"><g><path d="M 69.3125 -127.078125 L 88.515625 -127.078125 C 103.328125 -127.078125 115.410156 -125.09375 124.765625 -121.125 C 134.128906 -117.15625 141.0625 -110.457031 145.5625 -101.03125 C 150.0625 -91.613281 152.3125 -78.671875 152.3125 -62.203125 C 152.3125 -45.734375 150.0625 -32.789062 145.5625 -23.375 C 141.0625 -13.957031 134.128906 -7.257812 124.765625 -3.28125 C 115.410156 0.683594 103.328125 2.671875 88.515625 2.671875 L 69.3125 2.671875 C 54.625 2.671875 42.566406 0.683594 33.140625 -3.28125 C 23.722656 -7.257812 16.765625 -13.957031 12.265625 -23.375 C 7.765625 -32.789062 5.515625 -45.734375 5.515625 -62.203125 C 5.515625 -78.671875 7.765625 -91.613281 12.265625 -101.03125 C 16.765625 -110.457031 23.722656 -117.15625 33.140625 -121.125 C 42.566406 -125.09375 54.625 -127.078125 69.3125 -127.078125 Z M 69.3125 -14.046875 L 88.515625 -14.046875 C 100.003906 -14.046875 109.066406 -15.554688 115.703125 -18.578125 C 122.335938 -21.597656 127.046875 -26.628906 129.828125 -33.671875 C 132.617188 -40.722656 134.015625 -50.234375 134.015625 -62.203125 C 134.015625 -74.171875 132.617188 -83.679688 129.828125 -90.734375 C 127.046875 -97.785156 122.335938 -102.820312 115.703125 -105.84375 C 109.066406 -108.863281 100.003906 -110.375 88.515625 -110.375 L 69.3125 -110.375 C 57.820312 -110.375 48.757812 -108.863281 42.125 -105.84375 C 35.488281 -102.820312 30.773438 -97.785156 27.984375 -90.734375 C 25.203125 -83.679688 23.8125 -74.171875 23.8125 -62.203125 C 23.8125 -50.234375 25.203125 -40.722656 27.984375 -33.671875 C 30.773438 -26.628906 35.488281 -21.597656 42.125 -18.578125 C 48.757812 -15.554688 57.820312 -14.046875 69.3125 -14.046875 Z M 69.3125 -14.046875 "></path></g></g></g><g fill="#ffffff" fill-opacity="1"><g transform="translate(158.07883, 211.053)"><g><path d="M 157.828125 -104.15625 L 161.03125 -104.15625 C 170.507812 -104.15625 178.328125 -102.613281 184.484375 -99.53125 C 190.648438 -96.445312 195.210938 -91.347656 198.171875 -84.234375 C 201.140625 -77.128906 202.625 -67.476562 202.625 -55.28125 L 202.625 0 L 185.203125 0 L 185.203125 -55.28125 C 185.203125 -67.601562 183.035156 -76.335938 178.703125 -81.484375 C 174.378906 -86.640625 167.066406 -89.21875 156.765625 -89.21875 L 151.96875 -89.21875 C 145.332031 -89.21875 139.257812 -88.003906 133.75 -85.578125 C 128.238281 -83.148438 123.820312 -79.148438 120.5 -73.578125 C 117.1875 -68.015625 115.53125 -60.375 115.53125 -50.65625 L 115.53125 0 L 97.9375 0 L 97.9375 -55.28125 C 97.9375 -67.601562 95.800781 -76.335938 91.53125 -81.484375 C 87.269531 -86.640625 79.925781 -89.21875 69.5 -89.21875 L 64.703125 -89.21875 C 58.066406 -89.21875 51.992188 -88.003906 46.484375 -85.578125 C 40.972656 -83.148438 36.554688 -79.148438 33.234375 -73.578125 C 29.921875 -68.015625 28.265625 -60.375 28.265625 -50.65625 L 28.265625 0 L 10.84375 0 L 10.84375 -101.484375 L 26.65625 -101.484375 L 26.65625 -76.609375 C 29.269531 -83.472656 32.828125 -88.921875 37.328125 -92.953125 C 41.828125 -96.984375 46.976562 -99.859375 52.78125 -101.578125 C 58.59375 -103.296875 64.578125 -104.15625 70.734375 -104.15625 L 73.9375 -104.15625 C 84.71875 -104.15625 93.21875 -101.875 99.4375 -97.3125 C 105.664062 -92.75 109.726562 -84.835938 111.625 -73.578125 C 114.101562 -81.285156 117.742188 -87.359375 122.546875 -91.796875 C 127.347656 -96.242188 132.828125 -99.414062 138.984375 -101.3125 C 145.148438 -103.207031 151.429688 -104.15625 157.828125 -104.15625 Z M 157.828125 -104.15625 "></path></g></g></g><g fill="#ffffff" fill-opacity="1"><g transform="translate(371.541241, 211.053)"><g><path d="M 128.5 -55.625 L 128.5 -45.859375 L 26.3125 -45.859375 C 26.664062 -37.441406 28.113281 -30.773438 30.65625 -25.859375 C 33.207031 -20.941406 37.175781 -17.414062 42.5625 -15.28125 C 47.957031 -13.15625 54.976562 -12.09375 63.625 -12.09375 L 76.078125 -12.09375 C 88.160156 -12.09375 97.046875 -14.132812 102.734375 -18.21875 C 108.421875 -22.300781 111.265625 -28.671875 111.265625 -37.328125 L 128.5 -37.328125 C 128.5 -22.628906 123.992188 -12.285156 114.984375 -6.296875 C 105.984375 -0.316406 93.015625 2.671875 76.078125 2.671875 L 61.671875 2.671875 C 49.585938 2.671875 39.664062 1.101562 31.90625 -2.03125 C 24.144531 -5.175781 18.394531 -10.628906 14.65625 -18.390625 C 10.925781 -26.148438 9.0625 -36.90625 9.0625 -50.65625 C 9.0625 -64.394531 10.925781 -75.144531 14.65625 -82.90625 C 18.394531 -90.675781 24.144531 -96.160156 31.90625 -99.359375 C 39.664062 -102.554688 49.585938 -104.15625 61.671875 -104.15625 L 76.078125 -104.15625 C 87.328125 -104.15625 96.863281 -102.734375 104.6875 -99.890625 C 112.507812 -97.046875 118.429688 -92.128906 122.453125 -85.140625 C 126.484375 -78.148438 128.5 -68.3125 128.5 -55.625 Z M 26.3125 -55.625 L 111.265625 -55.625 C 111.265625 -64.28125 109.898438 -71.066406 107.171875 -75.984375 C 104.453125 -80.898438 100.363281 -84.394531 94.90625 -86.46875 C 89.457031 -88.539062 82.585938 -89.578125 74.296875 -89.578125 L 63.625 -89.578125 C 54.976562 -89.578125 47.957031 -88.507812 42.5625 -86.375 C 37.175781 -84.25 33.207031 -80.695312 30.65625 -75.71875 C 28.113281 -70.738281 26.664062 -64.039062 26.3125 -55.625 Z M 26.3125 -55.625 "></path></g></g></g><g fill="#ffffff" fill-opacity="1"><g transform="translate(508.932044, 211.053)"><g><path d="M 104.6875 -81.40625 L 104.6875 -101.484375 L 122.109375 -101.484375 L 122.109375 -9.953125 C 122.109375 1.898438 120.566406 11.113281 117.484375 17.6875 C 114.398438 24.257812 109.507812 28.847656 102.8125 31.453125 C 96.125 34.066406 87.210938 35.375 76.078125 35.375 L 14.21875 35.375 L 14.21875 20.265625 L 76.078125 20.265625 C 83.535156 20.265625 89.335938 19.40625 93.484375 17.6875 C 97.628906 15.96875 100.53125 12.914062 102.1875 8.53125 C 103.851562 4.144531 104.6875 -2.015625 104.6875 -9.953125 L 104.6875 -23.109375 C 100.539062 -14.578125 94.554688 -8.617188 86.734375 -5.234375 C 78.910156 -1.859375 70.082031 -0.171875 60.25 -0.171875 L 57.046875 -0.171875 C 46.984375 -0.171875 38.363281 -1.738281 31.1875 -4.875 C 24.019531 -8.019531 18.539062 -13.382812 14.75 -20.96875 C 10.957031 -28.550781 9.0625 -38.976562 9.0625 -52.25 C 9.0625 -65.519531 10.957031 -75.914062 14.75 -83.4375 C 18.539062 -90.96875 24.019531 -96.300781 31.1875 -99.4375 C 38.363281 -102.582031 46.984375 -104.15625 57.046875 -104.15625 L 60.25 -104.15625 C 70.082031 -104.15625 78.910156 -102.460938 86.734375 -99.078125 C 94.554688 -95.703125 100.539062 -89.8125 104.6875 -81.40625 Z M 60.609375 -15.28125 L 67 -15.28125 C 79.09375 -15.28125 88.394531 -18.035156 94.90625 -23.546875 C 101.425781 -29.054688 104.6875 -38.625 104.6875 -52.25 C 104.6875 -65.757812 101.425781 -75.296875 94.90625 -80.859375 C 88.394531 -86.429688 79.09375 -89.21875 67 -89.21875 L 60.609375 -89.21875 C 49.117188 -89.21875 40.5 -86.429688 34.75 -80.859375 C 29 -75.296875 26.125 -65.757812 26.125 -52.25 C 26.125 -38.625 29 -29.054688 34.75 -23.546875 C 40.5 -18.035156 49.117188 -15.28125 60.609375 -15.28125 Z M 60.609375 -15.28125 "></path></g></g></g><g fill="#ffffff" fill-opacity="1"><g transform="translate(641.879477, 211.053)"><g><path d="M 58.828125 -104.15625 L 76.609375 -104.15625 C 88.097656 -104.15625 97.335938 -102.644531 104.328125 -99.625 C 111.316406 -96.601562 116.410156 -91.59375 119.609375 -84.59375 C 122.816406 -77.601562 124.421875 -68.128906 124.421875 -56.171875 L 124.421875 0 L 106.8125 0 L 106.8125 -23.46875 C 100.300781 -6.164062 85.195312 2.484375 61.5 2.484375 L 56.171875 2.484375 C 41.117188 2.484375 29.503906 -0.269531 21.328125 -5.78125 C 13.148438 -11.289062 9.0625 -19.847656 9.0625 -31.453125 C 9.0625 -38.679688 10.835938 -44.132812 14.390625 -47.8125 C 17.953125 -51.488281 23.140625 -53.976562 29.953125 -55.28125 C 36.765625 -56.582031 44.910156 -57.234375 54.390625 -57.234375 L 106.8125 -57.234375 C 106.695312 -65.285156 105.691406 -71.679688 103.796875 -76.421875 C 101.898438 -81.160156 98.640625 -84.597656 94.015625 -86.734375 C 89.398438 -88.867188 83.003906 -89.9375 74.828125 -89.9375 L 58.46875 -89.9375 C 47.6875 -89.9375 40.070312 -87.921875 35.625 -83.890625 C 31.1875 -79.859375 28.96875 -74.703125 28.96875 -68.421875 L 11.734375 -68.421875 C 11.734375 -80.390625 15.550781 -89.335938 23.1875 -95.265625 C 30.832031 -101.191406 42.710938 -104.15625 58.828125 -104.15625 Z M 55.984375 -10.671875 L 66.65625 -10.671875 C 74.832031 -10.671875 81.878906 -11.851562 87.796875 -14.21875 C 93.722656 -16.59375 98.316406 -20.472656 101.578125 -25.859375 C 104.835938 -31.253906 106.582031 -38.570312 106.8125 -47.8125 L 56.171875 -47.8125 C 46.097656 -47.8125 38.570312 -46.742188 33.59375 -44.609375 C 28.613281 -42.472656 26.125 -38.085938 26.125 -31.453125 C 26.125 -24.816406 28.640625 -19.691406 33.671875 -16.078125 C 38.710938 -12.472656 46.148438 -10.671875 55.984375 -10.671875 Z M 55.984375 -10.671875 "></path></g></g></g><g fill="#ffffff" fill-opacity="1"><g transform="translate(777.13751, 211.053)"><g></g></g></g><g fill="#ffffff" fill-opacity="1"><g transform="translate(818.017001, 211.053)"><g><path d="M 149.828125 0 L 130.109375 0 L 119.265625 -23.640625 L 27.375 -23.640625 L 16.171875 0 L -3.5625 0 L 55.453125 -124.421875 L 92.59375 -124.421875 Z M 68.078125 -109.84375 L 34.125 -38.03125 L 112.6875 -38.03125 L 79.984375 -109.84375 Z M 68.078125 -109.84375 "></path></g></g></g><g fill="#ffffff" fill-opacity="1"><g transform="translate(964.294759, 211.053)"><g><path d="M 27.734375 0 L 9.0625 0 L 9.0625 -124.421875 L 27.734375 -124.421875 Z M 27.734375 0 "></path></g></g></g></g></g></svg>