<svg xmlns="http://www.w3.org/2000/svg" xmlns:xlink="http://www.w3.org/1999/xlink" width="2000" zoomAndPan="magnify" viewBox="0 0 1500 1499.999933" height="2000" preserveAspectRatio="xMidYMid meet" version="1.0"><path fill="#ffffff" d="M 702.5625 331.179688 C 733.207031 300.535156 726.753906 176.351562 723.53125 129.578125 C 723.53125 79.582031 686.433594 36.035156 636.4375 29.585938 C 599.34375 23.132812 471.933594 23.132812 441.289062 29.585938 C 297.75 69.90625 447.742188 339.242188 313.878906 355.371094 C 236.464844 365.046875 96.148438 327.953125 52.605469 405.367188 C 33.25 442.464844 33.25 553.746094 33.25 594.066406 C 33.25 634.386719 60.667969 687.609375 107.4375 694.058594 C 141.308594 700.511719 259.042969 700.511719 292.910156 694.058594 C 454.191406 674.707031 302.589844 384.402344 430 365.046875 C 500.964844 352.144531 644.503906 389.242188 696.113281 331.179688 C 696.113281 331.179688 702.5625 331.179688 702.5625 331.179688 Z M 702.5625 331.179688 " fill-opacity="1" fill-rule="nonzero"></path><path fill="#ffffff" d="M 810.621094 337.632812 C 857.390625 384.402344 999.320312 358.597656 1065.445312 365.046875 C 1092.863281 365.046875 1121.890625 392.464844 1126.730469 421.496094 C 1139.632812 492.460938 1092.863281 660.191406 1186.402344 690.835938 C 1213.820312 700.511719 1363.8125 700.511719 1394.457031 690.835938 C 1418.648438 690.835938 1447.679688 666.644531 1455.742188 644.0625 C 1475.09375 606.96875 1475.09375 439.238281 1455.742188 405.367188 C 1396.070312 303.761719 1210.597656 398.917969 1149.308594 331.179688 C 1099.3125 274.730469 1176.726562 86.035156 1088.023438 39.261719 C 1057.378906 26.359375 926.742188 26.359375 886.421875 26.359375 C 836.425781 32.8125 792.878906 63.453125 786.429688 113.453125 C 786.429688 144.09375 779.976562 268.28125 786.429688 297.3125 C 786.429688 303.761719 805.78125 331.179688 807.394531 334.40625 Z M 810.621094 337.632812 " fill-opacity="1" fill-rule="nonzero"></path><path fill="#ffffff" d="M 665.46875 579.550781 C 628.375 586.003906 591.28125 623.097656 584.828125 660.191406 C 578.378906 694.058594 578.378906 790.828125 584.828125 827.921875 C 591.28125 877.921875 618.699219 915.015625 671.921875 921.464844 L 839.652344 921.464844 C 896.101562 915.015625 923.515625 865.015625 926.742188 816.632812 C 933.195312 752.121094 939.644531 627.9375 870.292969 592.453125 C 836.425781 573.101562 705.789062 573.101562 665.46875 579.550781 Z M 665.46875 579.550781 " fill-opacity="1" fill-rule="nonzero"></path><path fill="#ffffff" d="M 142.921875 800.503906 C 118.730469 800.503906 81.632812 824.699219 68.730469 847.277344 C 49.378906 877.921875 49.378906 1005.332031 55.828125 1045.652344 C 55.828125 1079.519531 86.472656 1126.292969 123.566406 1132.742188 C 197.757812 1145.644531 375.164062 1095.648438 389.679688 1200.480469 C 402.582031 1284.347656 349.359375 1452.078125 476.769531 1466.59375 L 638.050781 1466.59375 C 671.917969 1466.59375 705.789062 1439.175781 725.140625 1410.144531 C 744.496094 1379.5 744.496094 1258.542969 738.042969 1218.222656 C 718.691406 1060.167969 492.898438 1174.675781 421.9375 1116.613281 C 354.199219 1060.167969 449.351562 871.46875 347.746094 810.183594 C 313.878906 790.828125 183.242188 790.828125 142.921875 797.28125 C 142.921875 797.28125 142.921875 800.503906 142.921875 800.503906 Z M 142.921875 800.503906 " fill-opacity="1" fill-rule="nonzero"></path><path fill="#ffffff" d="M 1215.433594 800.503906 C 1034.800781 831.148438 1202.53125 1119.839844 1067.054688 1135.96875 C 979.964844 1145.644531 800.945312 1095.648438 784.816406 1223.058594 C 784.816406 1263.378906 778.363281 1390.792969 800.945312 1421.433594 C 820.296875 1452.078125 860.617188 1468.207031 894.488281 1471.429688 C 938.03125 1471.429688 1055.765625 1477.882812 1086.410156 1455.304688 C 1167.050781 1408.53125 1126.730469 1269.832031 1136.40625 1194.03125 C 1152.535156 1082.746094 1375.101562 1173.0625 1441.226562 1110.164062 C 1484.773438 1069.84375 1478.320312 952.109375 1475.09375 895.660156 C 1475.09375 861.792969 1455.742188 827.921875 1425.097656 808.570312 C 1391.230469 789.214844 1260.59375 789.214844 1220.273438 795.667969 L 1217.046875 798.894531 Z M 1215.433594 800.503906 " fill-opacity="1" fill-rule="nonzero"></path><path fill="#ffffff" d="M 665.46875 579.550781 C 705.789062 573.101562 836.425781 573.101562 870.292969 592.453125 C 938.03125 626.324219 931.582031 750.507812 926.742188 816.632812 C 926.742188 869.855469 896.101562 916.628906 839.652344 921.464844 L 671.917969 921.464844 C 618.699219 915.015625 591.28125 877.921875 584.828125 827.921875 L 584.828125 660.191406 C 591.28125 623.097656 628.375 586.003906 665.46875 579.550781 Z M 665.46875 579.550781 " fill-opacity="1" fill-rule="nonzero"></path></svg>