<svg xmlns="http://www.w3.org/2000/svg" xmlns:xlink="http://www.w3.org/1999/xlink" width="2000" zoomAndPan="magnify" viewBox="0 0 1500 1499.999933" height="2000" preserveAspectRatio="xMidYMid meet" version="1.0"><path fill="#0513ed" d="M 702.8125 331.21875 C 733.460938 300.574219 727.007812 176.371094 723.78125 129.59375 C 723.78125 79.589844 686.683594 36.039062 636.683594 29.585938 C 599.585938 23.136719 472.164062 23.136719 441.519531 29.585938 C 297.96875 69.914062 447.96875 339.285156 314.097656 355.414062 C 236.675781 365.09375 96.351562 327.996094 52.800781 405.417969 C 33.445312 442.519531 33.445312 553.816406 33.445312 594.140625 C 33.445312 634.464844 60.867188 687.695312 107.640625 694.148438 C 141.511719 700.597656 259.257812 700.597656 293.128906 694.148438 C 454.421875 674.789062 302.804688 384.449219 430.226562 365.09375 C 501.195312 352.1875 644.746094 389.289062 696.363281 331.21875 C 696.363281 331.21875 702.8125 331.21875 702.8125 331.21875 Z M 702.8125 331.21875 " fill-opacity="1" fill-rule="nonzero"></path><path fill="#0513ed" d="M 810.878906 337.671875 C 857.65625 384.449219 999.59375 358.640625 1065.722656 365.09375 C 1093.144531 365.09375 1122.175781 392.515625 1127.015625 421.546875 C 1139.917969 492.519531 1093.144531 660.273438 1186.695312 690.921875 C 1214.113281 700.597656 1364.117188 700.597656 1394.761719 690.921875 C 1418.957031 690.921875 1447.988281 666.726562 1456.054688 644.144531 C 1475.410156 607.042969 1475.410156 439.292969 1456.054688 405.417969 C 1396.375 303.800781 1210.886719 398.964844 1149.597656 331.21875 C 1099.59375 274.765625 1177.015625 86.042969 1088.304688 39.265625 C 1057.660156 26.363281 927.011719 26.363281 886.6875 26.363281 C 836.6875 32.8125 793.136719 63.460938 786.6875 113.464844 C 786.6875 144.109375 780.234375 268.3125 786.6875 297.347656 C 786.6875 303.800781 806.042969 331.21875 807.652344 334.445312 Z M 810.878906 337.671875 " fill-opacity="1" fill-rule="nonzero"></path><path fill="#0513ed" d="M 665.714844 579.625 C 628.617188 586.074219 591.519531 623.175781 585.070312 660.273438 C 578.617188 694.148438 578.617188 790.925781 585.070312 828.027344 C 591.519531 878.03125 618.941406 915.128906 672.167969 921.582031 L 839.914062 921.582031 C 896.367188 915.128906 923.785156 865.125 927.011719 816.734375 C 933.460938 752.214844 939.914062 628.015625 870.558594 592.527344 C 836.6875 573.171875 706.039062 573.171875 665.714844 579.625 Z M 665.714844 579.625 " fill-opacity="1" fill-rule="nonzero"></path><path fill="#0513ed" d="M 143.125 800.605469 C 118.929688 800.605469 81.835938 824.800781 68.929688 847.382812 C 49.574219 878.03125 49.574219 1005.457031 56.027344 1045.78125 C 56.027344 1079.65625 86.671875 1126.433594 123.769531 1132.886719 C 197.964844 1145.789062 375.386719 1095.785156 389.90625 1200.632812 C 402.808594 1284.507812 349.582031 1452.261719 477.003906 1466.777344 L 638.296875 1466.777344 C 672.167969 1466.777344 706.039062 1439.355469 725.394531 1410.324219 C 744.75 1379.675781 744.75 1258.699219 738.296875 1218.375 C 718.941406 1060.300781 493.132812 1174.824219 422.164062 1116.753906 C 354.421875 1060.300781 449.582031 871.578125 347.96875 810.285156 C 314.097656 790.925781 183.449219 790.925781 143.125 797.378906 C 143.125 797.378906 143.125 800.605469 143.125 800.605469 Z M 143.125 800.605469 " fill-opacity="1" fill-rule="nonzero"></path><path fill="#0513ed" d="M 1215.726562 800.605469 C 1035.078125 831.253906 1202.824219 1119.980469 1067.335938 1136.113281 C 980.238281 1145.789062 801.203125 1095.785156 785.074219 1223.214844 C 785.074219 1263.539062 778.621094 1390.964844 801.203125 1421.613281 C 820.558594 1452.261719 860.878906 1468.390625 894.753906 1471.617188 C 938.300781 1471.617188 1056.046875 1478.070312 1086.691406 1455.488281 C 1167.339844 1408.710938 1127.015625 1269.992188 1136.691406 1194.179688 C 1152.820312 1082.882812 1375.40625 1173.210938 1441.535156 1110.304688 C 1485.085938 1069.976562 1478.632812 952.230469 1475.410156 895.773438 C 1475.410156 861.898438 1456.054688 828.027344 1425.40625 808.671875 C 1391.535156 789.316406 1260.886719 789.316406 1220.566406 795.765625 Z M 1215.726562 800.605469 " fill-opacity="1" fill-rule="nonzero"></path><path fill="#0513ed" d="M 665.714844 579.625 C 706.039062 573.171875 836.6875 573.171875 870.558594 592.527344 C 938.300781 626.402344 931.851562 750.601562 927.011719 816.734375 C 927.011719 869.964844 896.367188 916.742188 839.914062 921.582031 L 672.167969 921.582031 C 618.941406 915.128906 591.519531 878.03125 585.070312 828.027344 L 585.070312 660.273438 C 591.519531 623.175781 628.617188 586.074219 665.714844 579.625 Z M 665.714844 579.625 " fill-opacity="1" fill-rule="nonzero"></path></svg>