<svg xmlns="http://www.w3.org/2000/svg" xmlns:xlink="http://www.w3.org/1999/xlink" width="2000" zoomAndPan="magnify" viewBox="0 0 1500 599.999999" height="800" preserveAspectRatio="xMidYMid meet" version="1.0"><defs><g></g><clipPath id="2e5fb54b43"><rect x="0" width="1002" y="0" height="277"></rect></clipPath></defs><path fill="#0513ed" d="M 196.734375 176.171875 C 205.140625 167.765625 203.371094 133.699219 202.488281 120.871094 C 202.488281 107.15625 192.3125 95.210938 178.59375 93.441406 C 168.417969 91.671875 133.464844 91.671875 125.058594 93.441406 C 85.679688 104.5 126.828125 178.382812 90.105469 182.808594 C 68.867188 185.460938 30.375 175.285156 18.429688 196.519531 C 13.117188 206.695312 13.117188 237.222656 13.117188 248.28125 C 13.117188 259.34375 20.640625 273.941406 33.472656 275.710938 C 42.761719 277.480469 75.0625 277.480469 84.351562 275.710938 C 128.597656 270.402344 87.007812 190.769531 121.960938 185.460938 C 141.429688 181.921875 180.808594 192.097656 194.964844 176.171875 C 194.964844 176.171875 196.734375 176.171875 196.734375 176.171875 Z M 196.734375 176.171875 " fill-opacity="1" fill-rule="nonzero"></path><path fill="#0513ed" d="M 226.378906 177.941406 C 239.210938 190.769531 278.144531 183.691406 296.285156 185.460938 C 303.808594 185.460938 311.773438 192.980469 313.101562 200.945312 C 316.640625 220.410156 303.808594 266.421875 329.472656 274.828125 C 336.992188 277.480469 378.140625 277.480469 386.546875 274.828125 C 393.183594 274.828125 401.148438 268.191406 403.359375 261.996094 C 408.667969 251.820312 408.667969 205.8125 403.359375 196.519531 C 386.988281 168.648438 336.109375 194.75 319.292969 176.171875 C 305.578125 160.6875 326.816406 108.925781 302.480469 96.097656 C 294.074219 92.558594 258.234375 92.558594 247.175781 92.558594 C 233.457031 94.328125 221.511719 102.730469 219.742188 116.445312 C 219.742188 124.851562 217.972656 158.917969 219.742188 166.878906 C 219.742188 168.648438 225.050781 176.171875 225.496094 177.054688 Z M 226.378906 177.941406 " fill-opacity="1" fill-rule="nonzero"></path><path fill="#0513ed" d="M 186.558594 244.300781 C 176.382812 246.070312 166.207031 256.246094 164.4375 266.421875 C 162.667969 275.710938 162.667969 302.253906 164.4375 312.429688 C 166.207031 326.144531 173.726562 336.320312 188.328125 338.089844 L 234.34375 338.089844 C 249.828125 336.320312 257.351562 322.605469 258.234375 309.335938 C 260.007812 291.636719 261.777344 257.574219 242.75 247.839844 C 233.457031 242.53125 197.621094 242.53125 186.558594 244.300781 Z M 186.558594 244.300781 " fill-opacity="1" fill-rule="nonzero"></path><path fill="#0513ed" d="M 43.207031 304.910156 C 36.570312 304.910156 26.390625 311.546875 22.851562 317.738281 C 17.542969 326.144531 17.542969 361.09375 19.3125 372.15625 C 19.3125 381.445312 27.71875 394.277344 37.894531 396.046875 C 58.25 399.585938 106.917969 385.871094 110.898438 414.625 C 114.441406 437.632812 99.839844 483.640625 134.792969 487.621094 L 179.039062 487.621094 C 188.328125 487.621094 197.621094 480.101562 202.929688 472.136719 C 208.238281 463.734375 208.238281 430.550781 206.46875 419.492188 C 201.160156 376.136719 139.21875 407.546875 119.75 391.621094 C 101.167969 376.136719 127.269531 324.375 99.394531 307.566406 C 90.105469 302.253906 54.265625 302.253906 43.207031 304.023438 C 43.207031 304.023438 43.207031 304.910156 43.207031 304.910156 Z M 43.207031 304.910156 " fill-opacity="1" fill-rule="nonzero"></path><path fill="#0513ed" d="M 337.433594 304.910156 C 287.878906 313.316406 333.894531 392.503906 296.730469 396.929688 C 272.835938 399.585938 223.726562 385.871094 219.300781 420.820312 C 219.300781 431.878906 217.53125 466.828125 223.726562 475.234375 C 229.035156 483.640625 240.09375 488.066406 249.386719 488.949219 C 261.332031 488.949219 293.632812 490.71875 302.039062 484.527344 C 324.160156 471.695312 313.101562 433.648438 315.753906 412.855469 C 320.179688 382.332031 381.238281 407.105469 399.378906 389.851562 C 411.324219 378.792969 409.554688 346.496094 408.667969 331.011719 C 408.667969 321.722656 403.359375 312.429688 394.953125 307.121094 C 385.660156 301.8125 349.824219 301.8125 338.761719 303.582031 L 337.878906 304.46875 Z M 337.433594 304.910156 " fill-opacity="1" fill-rule="nonzero"></path><path fill="#0513ed" d="M 186.558594 244.300781 C 197.621094 242.53125 233.457031 242.53125 242.75 247.839844 C 261.332031 257.128906 259.5625 291.195312 258.234375 309.335938 C 258.234375 323.933594 249.828125 336.761719 234.34375 338.089844 L 188.328125 338.089844 C 173.726562 336.320312 166.207031 326.144531 164.4375 312.429688 L 164.4375 266.421875 C 166.207031 256.246094 176.382812 246.070312 186.558594 244.300781 Z M 186.558594 244.300781 " fill-opacity="1" fill-rule="nonzero"></path><g transform="matrix(1, 0, 0, 1, 478, 146)"><g clip-path="url(#2e5fb54b43)"><g fill="#0513ed" fill-opacity="1"><g transform="translate(0.248174, 211.053)"><g><path d="M 69.3125 -127.078125 L 88.515625 -127.078125 C 103.328125 -127.078125 115.410156 -125.09375 124.765625 -121.125 C 134.128906 -117.15625 141.0625 -110.457031 145.5625 -101.03125 C 150.0625 -91.613281 152.3125 -78.671875 152.3125 -62.203125 C 152.3125 -45.734375 150.0625 -32.789062 145.5625 -23.375 C 141.0625 -13.957031 134.128906 -7.257812 124.765625 -3.28125 C 115.410156 0.683594 103.328125 2.671875 88.515625 2.671875 L 69.3125 2.671875 C 54.625 2.671875 42.566406 0.683594 33.140625 -3.28125 C 23.722656 -7.257812 16.765625 -13.957031 12.265625 -23.375 C 7.765625 -32.789062 5.515625 -45.734375 5.515625 -62.203125 C 5.515625 -78.671875 7.765625 -91.613281 12.265625 -101.03125 C 16.765625 -110.457031 23.722656 -117.15625 33.140625 -121.125 C 42.566406 -125.09375 54.625 -127.078125 69.3125 -127.078125 Z M 69.3125 -14.046875 L 88.515625 -14.046875 C 100.003906 -14.046875 109.066406 -15.554688 115.703125 -18.578125 C 122.335938 -21.597656 127.046875 -26.628906 129.828125 -33.671875 C 132.617188 -40.722656 134.015625 -50.234375 134.015625 -62.203125 C 134.015625 -74.171875 132.617188 -83.679688 129.828125 -90.734375 C 127.046875 -97.785156 122.335938 -102.820312 115.703125 -105.84375 C 109.066406 -108.863281 100.003906 -110.375 88.515625 -110.375 L 69.3125 -110.375 C 57.820312 -110.375 48.757812 -108.863281 42.125 -105.84375 C 35.488281 -102.820312 30.773438 -97.785156 27.984375 -90.734375 C 25.203125 -83.679688 23.8125 -74.171875 23.8125 -62.203125 C 23.8125 -50.234375 25.203125 -40.722656 27.984375 -33.671875 C 30.773438 -26.628906 35.488281 -21.597656 42.125 -18.578125 C 48.757812 -15.554688 57.820312 -14.046875 69.3125 -14.046875 Z M 69.3125 -14.046875 "></path></g></g></g><g fill="#0513ed" fill-opacity="1"><g transform="translate(158.07883, 211.053)"><g><path d="M 157.828125 -104.15625 L 161.03125 -104.15625 C 170.507812 -104.15625 178.328125 -102.613281 184.484375 -99.53125 C 190.648438 -96.445312 195.210938 -91.347656 198.171875 -84.234375 C 201.140625 -77.128906 202.625 -67.476562 202.625 -55.28125 L 202.625 0 L 185.203125 0 L 185.203125 -55.28125 C 185.203125 -67.601562 183.035156 -76.335938 178.703125 -81.484375 C 174.378906 -86.640625 167.066406 -89.21875 156.765625 -89.21875 L 151.96875 -89.21875 C 145.332031 -89.21875 139.257812 -88.003906 133.75 -85.578125 C 128.238281 -83.148438 123.820312 -79.148438 120.5 -73.578125 C 117.1875 -68.015625 115.53125 -60.375 115.53125 -50.65625 L 115.53125 0 L 97.9375 0 L 97.9375 -55.28125 C 97.9375 -67.601562 95.800781 -76.335938 91.53125 -81.484375 C 87.269531 -86.640625 79.925781 -89.21875 69.5 -89.21875 L 64.703125 -89.21875 C 58.066406 -89.21875 51.992188 -88.003906 46.484375 -85.578125 C 40.972656 -83.148438 36.554688 -79.148438 33.234375 -73.578125 C 29.921875 -68.015625 28.265625 -60.375 28.265625 -50.65625 L 28.265625 0 L 10.84375 0 L 10.84375 -101.484375 L 26.65625 -101.484375 L 26.65625 -76.609375 C 29.269531 -83.472656 32.828125 -88.921875 37.328125 -92.953125 C 41.828125 -96.984375 46.976562 -99.859375 52.78125 -101.578125 C 58.59375 -103.296875 64.578125 -104.15625 70.734375 -104.15625 L 73.9375 -104.15625 C 84.71875 -104.15625 93.21875 -101.875 99.4375 -97.3125 C 105.664062 -92.75 109.726562 -84.835938 111.625 -73.578125 C 114.101562 -81.285156 117.742188 -87.359375 122.546875 -91.796875 C 127.347656 -96.242188 132.828125 -99.414062 138.984375 -101.3125 C 145.148438 -103.207031 151.429688 -104.15625 157.828125 -104.15625 Z M 157.828125 -104.15625 "></path></g></g></g><g fill="#0513ed" fill-opacity="1"><g transform="translate(371.541241, 211.053)"><g><path d="M 128.5 -55.625 L 128.5 -45.859375 L 26.3125 -45.859375 C 26.664062 -37.441406 28.113281 -30.773438 30.65625 -25.859375 C 33.207031 -20.941406 37.175781 -17.414062 42.5625 -15.28125 C 47.957031 -13.15625 54.976562 -12.09375 63.625 -12.09375 L 76.078125 -12.09375 C 88.160156 -12.09375 97.046875 -14.132812 102.734375 -18.21875 C 108.421875 -22.300781 111.265625 -28.671875 111.265625 -37.328125 L 128.5 -37.328125 C 128.5 -22.628906 123.992188 -12.285156 114.984375 -6.296875 C 105.984375 -0.316406 93.015625 2.671875 76.078125 2.671875 L 61.671875 2.671875 C 49.585938 2.671875 39.664062 1.101562 31.90625 -2.03125 C 24.144531 -5.175781 18.394531 -10.628906 14.65625 -18.390625 C 10.925781 -26.148438 9.0625 -36.90625 9.0625 -50.65625 C 9.0625 -64.394531 10.925781 -75.144531 14.65625 -82.90625 C 18.394531 -90.675781 24.144531 -96.160156 31.90625 -99.359375 C 39.664062 -102.554688 49.585938 -104.15625 61.671875 -104.15625 L 76.078125 -104.15625 C 87.328125 -104.15625 96.863281 -102.734375 104.6875 -99.890625 C 112.507812 -97.046875 118.429688 -92.128906 122.453125 -85.140625 C 126.484375 -78.148438 128.5 -68.3125 128.5 -55.625 Z M 26.3125 -55.625 L 111.265625 -55.625 C 111.265625 -64.28125 109.898438 -71.066406 107.171875 -75.984375 C 104.453125 -80.898438 100.363281 -84.394531 94.90625 -86.46875 C 89.457031 -88.539062 82.585938 -89.578125 74.296875 -89.578125 L 63.625 -89.578125 C 54.976562 -89.578125 47.957031 -88.507812 42.5625 -86.375 C 37.175781 -84.25 33.207031 -80.695312 30.65625 -75.71875 C 28.113281 -70.738281 26.664062 -64.039062 26.3125 -55.625 Z M 26.3125 -55.625 "></path></g></g></g><g fill="#0513ed" fill-opacity="1"><g transform="translate(508.932044, 211.053)"><g><path d="M 104.6875 -81.40625 L 104.6875 -101.484375 L 122.109375 -101.484375 L 122.109375 -9.953125 C 122.109375 1.898438 120.566406 11.113281 117.484375 17.6875 C 114.398438 24.257812 109.507812 28.847656 102.8125 31.453125 C 96.125 34.066406 87.210938 35.375 76.078125 35.375 L 14.21875 35.375 L 14.21875 20.265625 L 76.078125 20.265625 C 83.535156 20.265625 89.335938 19.40625 93.484375 17.6875 C 97.628906 15.96875 100.53125 12.914062 102.1875 8.53125 C 103.851562 4.144531 104.6875 -2.015625 104.6875 -9.953125 L 104.6875 -23.109375 C 100.539062 -14.578125 94.554688 -8.617188 86.734375 -5.234375 C 78.910156 -1.859375 70.082031 -0.171875 60.25 -0.171875 L 57.046875 -0.171875 C 46.984375 -0.171875 38.363281 -1.738281 31.1875 -4.875 C 24.019531 -8.019531 18.539062 -13.382812 14.75 -20.96875 C 10.957031 -28.550781 9.0625 -38.976562 9.0625 -52.25 C 9.0625 -65.519531 10.957031 -75.914062 14.75 -83.4375 C 18.539062 -90.96875 24.019531 -96.300781 31.1875 -99.4375 C 38.363281 -102.582031 46.984375 -104.15625 57.046875 -104.15625 L 60.25 -104.15625 C 70.082031 -104.15625 78.910156 -102.460938 86.734375 -99.078125 C 94.554688 -95.703125 100.539062 -89.8125 104.6875 -81.40625 Z M 60.609375 -15.28125 L 67 -15.28125 C 79.09375 -15.28125 88.394531 -18.035156 94.90625 -23.546875 C 101.425781 -29.054688 104.6875 -38.625 104.6875 -52.25 C 104.6875 -65.757812 101.425781 -75.296875 94.90625 -80.859375 C 88.394531 -86.429688 79.09375 -89.21875 67 -89.21875 L 60.609375 -89.21875 C 49.117188 -89.21875 40.5 -86.429688 34.75 -80.859375 C 29 -75.296875 26.125 -65.757812 26.125 -52.25 C 26.125 -38.625 29 -29.054688 34.75 -23.546875 C 40.5 -18.035156 49.117188 -15.28125 60.609375 -15.28125 Z M 60.609375 -15.28125 "></path></g></g></g><g fill="#0513ed" fill-opacity="1"><g transform="translate(641.879477, 211.053)"><g><path d="M 58.828125 -104.15625 L 76.609375 -104.15625 C 88.097656 -104.15625 97.335938 -102.644531 104.328125 -99.625 C 111.316406 -96.601562 116.410156 -91.59375 119.609375 -84.59375 C 122.816406 -77.601562 124.421875 -68.128906 124.421875 -56.171875 L 124.421875 0 L 106.8125 0 L 106.8125 -23.46875 C 100.300781 -6.164062 85.195312 2.484375 61.5 2.484375 L 56.171875 2.484375 C 41.117188 2.484375 29.503906 -0.269531 21.328125 -5.78125 C 13.148438 -11.289062 9.0625 -19.847656 9.0625 -31.453125 C 9.0625 -38.679688 10.835938 -44.132812 14.390625 -47.8125 C 17.953125 -51.488281 23.140625 -53.976562 29.953125 -55.28125 C 36.765625 -56.582031 44.910156 -57.234375 54.390625 -57.234375 L 106.8125 -57.234375 C 106.695312 -65.285156 105.691406 -71.679688 103.796875 -76.421875 C 101.898438 -81.160156 98.640625 -84.597656 94.015625 -86.734375 C 89.398438 -88.867188 83.003906 -89.9375 74.828125 -89.9375 L 58.46875 -89.9375 C 47.6875 -89.9375 40.070312 -87.921875 35.625 -83.890625 C 31.1875 -79.859375 28.96875 -74.703125 28.96875 -68.421875 L 11.734375 -68.421875 C 11.734375 -80.390625 15.550781 -89.335938 23.1875 -95.265625 C 30.832031 -101.191406 42.710938 -104.15625 58.828125 -104.15625 Z M 55.984375 -10.671875 L 66.65625 -10.671875 C 74.832031 -10.671875 81.878906 -11.851562 87.796875 -14.21875 C 93.722656 -16.59375 98.316406 -20.472656 101.578125 -25.859375 C 104.835938 -31.253906 106.582031 -38.570312 106.8125 -47.8125 L 56.171875 -47.8125 C 46.097656 -47.8125 38.570312 -46.742188 33.59375 -44.609375 C 28.613281 -42.472656 26.125 -38.085938 26.125 -31.453125 C 26.125 -24.816406 28.640625 -19.691406 33.671875 -16.078125 C 38.710938 -12.472656 46.148438 -10.671875 55.984375 -10.671875 Z M 55.984375 -10.671875 "></path></g></g></g><g fill="#0513ed" fill-opacity="1"><g transform="translate(777.13751, 211.053)"><g></g></g></g><g fill="#0513ed" fill-opacity="1"><g transform="translate(818.017001, 211.053)"><g><path d="M 149.828125 0 L 130.109375 0 L 119.265625 -23.640625 L 27.375 -23.640625 L 16.171875 0 L -3.5625 0 L 55.453125 -124.421875 L 92.59375 -124.421875 Z M 68.078125 -109.84375 L 34.125 -38.03125 L 112.6875 -38.03125 L 79.984375 -109.84375 Z M 68.078125 -109.84375 "></path></g></g></g><g fill="#0513ed" fill-opacity="1"><g transform="translate(964.294759, 211.053)"><g><path d="M 27.734375 0 L 9.0625 0 L 9.0625 -124.421875 L 27.734375 -124.421875 Z M 27.734375 0 "></path></g></g></g></g></g></svg>