<svg xmlns="http://www.w3.org/2000/svg" xmlns:xlink="http://www.w3.org/1999/xlink" width="2000" zoomAndPan="magnify" viewBox="0 0 1500 1499.999933" height="2000" preserveAspectRatio="xMidYMid meet" version="1.0"><metadata><manifest xmlns:c2pa="http://c2pa.org/manifest">AABCHGp1bWIAAAAeanVtZGMycGEAEQAQgAAAqgA4m3EDYzJwYQAAAEH2anVtYgAAAEdqdW1kYzJtYQARABCAAACqADibcQN1cm46YzJwYTplNzFmMjUyYy1mNTQ5LTRhYmItYjgwYy1kYjRjNmM4ZjUzYTgAAAAB5Gp1bWIAAAApanVtZGMyYXMAEQAQgAAAqgA4m3EDYzJwYS5hc3NlcnRpb25zAAAAAO5qdW1iAAAAQWp1bWRjYm9yABEAEIAAAKoAOJtxE2MycGEuYWN0aW9ucy52MgAAAAAYYzJzaKSieoz2hr/zXnyntBSE0uEAAAClY2JvcqFnYWN0aW9uc4GjZmFjdGlvbmxjMnBhLmNyZWF0ZWRtc29mdHdhcmVBZ2VudGhDYW52YSBBSXFkaWdpdGFsU291cmNlVHlwZXhTaHR0cDovL2N2LmlwdGMub3JnL25ld3Njb2Rlcy9kaWdpdGFsc291cmNldHlwZS9jb21wb3NpdGVXaXRoVHJhaW5lZEFsZ29yaXRobWljTWVkaWEAAADFanVtYgAAAEBqdW1kY2JvcgARABCAAACqADibcRNjMnBhLmhhc2guZGF0YQAAAAAYYzJzaN8Oy1wrMXyOBVBykWC8wRsAAAB9Y2JvcqVqZXhjbHVzaW9uc4GiZXN0YXJ0GQETZmxlbmd0aBlYKGRuYW1lbmp1bWJmIG1hbmlmZXN0Y2FsZ2ZzaGEyNTZkaGFzaFgg3jW2jevoJAKxpr4VmTcl/Z0dpG6d0/yyGLWoLGE/m0JjcGFkSQAAAAAAAAAAAAAAAgtqdW1iAAAAJ2p1bWRjMmNsABEAEIAAAKoAOJtxA2MycGEuY2xhaW0udjIAAAAB3GNib3Knamluc3RhbmNlSUR4LHhtcDppaWQ6ZjU0MDFhZTgtNTdiYi00MGUzLWEyMTUtNGM5OGQ3ODMzYWYzdGNsYWltX2dlbmVyYXRvcl9pbmZvo2RuYW1lZ2MycGEtcnNndmVyc2lvbmUwLjAuMHdvcmcuY29udGVudGF1dGguYzJwYV9yc2UwLjAuMGlzaWduYXR1cmV4TXNlbGYjanVtYmY9L2MycGEvdXJuOmMycGE6ZTcxZjI1MmMtZjU0OS00YWJiLWI4MGMtZGI0YzZjOGY1M2E4L2MycGEuc2lnbmF0dXJlcmNyZWF0ZWRfYXNzZXJ0aW9uc4GiY3VybHgpc2VsZiNqdW1iZj1jMnBhLmFzc2VydGlvbnMvYzJwYS5oYXNoLmRhdGFkaGFzaFggXGVdo0umBoTPKbFyt3DrARRdgLKYDUCrXodzQWklg7VzZ2F0aGVyZWRfYXNzZXJ0aW9uc4GiY3VybHgqc2VsZiNqdW1iZj1jMnBhLmFzc2VydGlvbnMvYzJwYS5hY3Rpb25zLnYyZGhhc2hYIAt3r8ibL/O6cQdYhLFJabIcTc2WdoJqf13DPoa9fcgFaGRjOnRpdGxlZTEuc3ZnY2FsZ2ZzaGEyNTYAAD24anVtYgAAAChqdW1kYzJjcwARABCAAACqADibcQNjMnBhLnNpZ25hdHVyZQAAAD2IY2JvctKEWRKAogE4Jhghg1kFPjCCBTowggMioAMCAQICECCOaLh4u4UVks6Vw8rw6q0wDQYJKoZIhvcNAQENBQAwIjEgMB4GA1UEAxMXU2lnbmluZyBJbnRlcm1lZGlhdGUgQ0EwHhcNMjYwNjAxMjM1MTI3WhcNMjYwNjA5MjM1MTI3WjA4MQ4wDAYDVQQKEwVDYW52YTEOMAwGA1UECxMFQ2FudmExFjAUBgNVBAMTDUNhbnZhIFNpZ25pbmcwggIiMA0GCSqGSIb3DQEBAQUAA4ICDwAwggIKAoICAQCuKO8zkaV+R3KxzCU5fLl+RTU3B/EwkZ2JzH6+3E24goG5x7GsQugtr5P8QHvSagzuah+T5sCrUjqxWaYDdimV+1KO5idL6rmDm/48d5D6M3IXsmA3091pTaCnqbroNoOKLtepUrZMgI9s4Wz0djwZmWHy7tT+8OQeLTqK2zJxoFjeLfewVPYVv15D3hmTjaj7hwcIrVHCgKKFhG72i4yqPGJBU2i+GYzGSjM8kgP14z1HFehvv6TvGCm8MdxI/L26oEyGkwJxmjoxVwMFMY7+GcPPIlHwjr77MA9EvycL+pmQG3hlF05iExMb68PR0SvjTbwCYt/rbiHyN6Yn9LaVwyzf3dFKDE9bJ5AUAOH1TVPwpObey2vvwxCmO4stBstnNIyIj21DBqPiBPZ6g6FMNNnE2I3r15BkETIYzYerehGXlIdl2SNut+WVzRUfRbuXkxCYQZz58Az6i1egbat5baiv4w3Qv2yXRXGrsmbxbGGS2Z6RVu5riJG0eI2w+PFkHv/ZljvGS0Mgvhk446Tnl/4m3tIgOGC10LHigyHXOdSyHuYznae1VPW+mLKxeROhpHAQSrN0ih20HmYnl7xDS73OevASR+Z1ZQ1htcQxonENcngXbuarpySgGAmhIpcCJD3ZD1+EmvqO5QZA+JHroDqND3aWKWaC2Sq1i55rcQIDAQABo1YwVDAOBgNVHQ8BAf8EBAMCB4AwEwYDVR0lBAwwCgYIKwYBBQUHAwQwDAYDVR0TAQH/BAIwADAfBgNVHSMEGDAWgBQeRaAltZXczJtSVXwcoXoeXbb7OjANBgkqhkiG9w0BAQ0FAAOCAgEAJedWLGZKuNEHHdwKZ3yqYNxBN3zEs7oX3bZs76x46HPYTwqFNYjPmD5es9xHyv5mhqqiG6YvyvwCW8JbF3U3fsNDbgnD1y5gA29cLza6alN3KKKxyq/GtW2Duem/3WrgD2BbrtVbjPKmoqotaFg1O2jkBHQKaxiPh2mBI+lNmWvO0Fc21yzgOJm4tksFTwqH3LHEhch65lVSUqDIQWvAmlVSFPqjnNCQuKtZNzhwxiKWRAnGgJkEVW+PNDpqVFunm+FfnRACkw946Cb5KuhjiQsVssgjL6WFU8WbLLuGZsAHw9ZB3uofiLURHXNXM/mTeu6AEltZYsy0t/hy4mdm2g27TBNJMG4ousosVarhOLl31XeS3X2F4Xg7x+OhOGznhaLDw4wY+GUb9IpijgPOeR7/3bh5tLa6Tb8vsc8aZw8Taux2u7yuE51N+It20Qt/Ne4vepH73p7wT0LFh8FmLli0W6GKnYEXQyKg3BNLIb9qRhVSb68vxJZ1krxSgSdK/kCHncV/If30ROb033/lJ0Rrq2nOIwUnQPcOTFvA7yzeoQs/AutvFcSmt9RRx0T+y5QJRxzbNKTkgGsG9Yw7kRWUT9zShJCemUz0fNwDmd3cbVNvtXz4w+eHQpIM0oRQi5X5ISoqkAuPyEXaqvGDGEXMn3b7kTttbSo2K8/zmo1ZBugwggbkMIIEzKADAgECAhQQIx7sgy7RKz6KV3POQz05dnV6vDANBgkqhkiG9w0BAQsFADBtMQswCQYDVQQGEwJBVTEMMAoGA1UECBMDTlNXMQ8wDQYDVQQHEwZTeWRuZXkxEzARBgNVBAoTCkNhbnZhIFByb2QxEDAOBgNVBAsTB1NpZ25pbmcxGDAWBgNVBAMTD1NpZ25pbmcgQ0EgUHJvZDAeFw0yNjA2MDEwNTM4MjBaFw0yNjA3MDEwNTM4NTBaMCIxIDAeBgNVBAMTF1NpZ25pbmcgSW50ZXJtZWRpYXRlIENBMIICIjANBgkqhkiG9w0BAQEFAAOCAg8AMIICCgKCAgEAyd8mPcMVsVzOKII3MCx0UOuSk0hZiwI4FQal7Iixa4cdKmQ+8vIe1odYCegGcK8IXPeZ8F/r095lbHvfDxepmDLKwCVGI2e7ZGjICXnWmUrZty/m3stc7EUmholTyHrd9Zz/HcM/oPznIEwO0udjoQ9WzstyoNXW2G3oMIFXYrQVG//t7H7aekcZJYn93ztjEMawJsCyM2urgMHChxmaxoJAq1loRJcy5rv8L2wrsQoC4656uUdS9MoYym63eS4zfpGj6r4nFa7hAua+FJO3JcuqJRg17/WZl4LmcPstc8WfP3HnchbswLpcvMRSq1afrBx9PJMX9GvSpsxPFZuyrCZdlzEr1KAJM/tj1QLJOzgKLkCQldXHnnDSljtng6DpBvtmvE9oDpflfTQY2OYF3GqRQQ+djm46X2RGHpKxMQxkjQcpAf+dmzD2XWwGVbe0ezzKzEr4TqTjl8tdsDNTReH6N+99Gf0WrXUMSoWe862LM044leTl1TSLAT0JJWAS1fFlGiPlNPHEbwzTjXuv4gekH3+Psw9zYXa6GNOiBG/zJaVSJ+s6jhy5chNytTVnzgeE6cyFB/TKTYH/pGzZvby00v5mqbxlS1Ze1B9FPXKcfH4g7RVcwZQhymZ5U9I5bH/ublSeX5e25kMyIvaoHEcmlPCJHQMRN4BKZBynmtECAwEAAaOCAcUwggHBMA4GA1UdDwEB/wQEAwIBBjASBgNVHRMBAf8ECDAGAQH/AgEAMB0GA1UdDgQWBBQeRaAltZXczJtSVXwcoXoeXbb7OjAfBgNVHSMEGDAWgBRKXG3+d1BovWMpYWTthuIhywTjHTCB1wYIKwYBBQUHAQEEgcowgccwTAYIKwYBBQUHMAGGQGh0dHBzOi8vcGtpLmNhbnZhLWludGVybmFsLmNvbS92MS9wa2kvY2FudmEtcHJvZC9sMS9zaWduaW5nL29jc3AwdwYIKwYBBQUHMAKGa2h0dHBzOi8vcGtpLmNhbnZhLWludGVybmFsLmNvbS92MS9wa2kvY2FudmEtcHJvZC9sMS9zaWduaW5nL2lzc3Vlci8xZGM0NWM4NC00ZjkzLWUxMGUtNGMzNi1lN2RlYWEyNTYzOTIvZGVyMIGABgNVHR8EeTB3MHWgc6Bxhm9odHRwczovL3BraS5jYW52YS1pbnRlcm5hbC5jb20vdjEvcGtpL2NhbnZhLXByb2QvbDEvc2lnbmluZy9pc3N1ZXIvMWRjNDVjODQtNGY5My1lMTBlLTRjMzYtZTdkZWFhMjU2MzkyL2NybC9kZXIwDQYJKoZIhvcNAQELBQADggIBAJVh0RYKbBJeMDHW+Gjmjkexe/7aWFKHL5FR1bL1NnyDl3SVap5Y8EiQqDM1OWXKSXSgJQzuGIsHCXIeokIiQD+IWMef03S/3KSPcnEuZd1BpC2SmxUmEUb+2iuqukAquKcaDybZfV4eoWcDQQsuYItHWO27zmBsMg8uV5TfyDWm44F02DfTCxCazFRBZ03UCchc3EnnNXL+/+qATuKbJmfe6vYWn8wmpwzOwawMHvVIhaW1qAWZqcWg5OkcM8YgMmbXciKzZtLUHdDXXy9dzWZhYSX90FROJl9Nrcur30r2KCwoQ4CEmuQccKiKJymZcqDl2wmXeErDUzwbRPnpGcz5Cpugi1YWaWh8B4qFkliW3iclhxAvTS/Rsqqm2yWCCChlusAeK7E6+5dT3FCZkwv7gqwf4LRNL8KVrf5FyAy1+t9EwKooEmvEy5X/fVuRn2Sr7JaByR6yMbI4QntbUPhlfwNHGz3W7qoycp3KRcvet+CLNAoPYShIBlwmmBYtLJXImf4wXX6SoL+M1ln+BLP8XHY+kgh1L6DxDo5Kd/icr6iWJplPvZGgiPFcL8ZWlvU5LUIVETLSW3h0SxO9vlaMUTo3yFBZqyPtUFLZ8U9Gw/tbneNHiqPKEkfUub4c71j5kJX1vyJaNlOS/jy3OyP0GQuXsfZuYe19R9VWOJucWQZKMIIGRjCCBC6gAwIBAgIRAMm1bMZTPQwH8yF1O+tQYeEwDQYJKoZIhvcNAQENBQAwgYExCzAJBgNVBAYTAkFVMRMwEQYDVQQKDApDYW52YSBQcm9kMRcwFQYDVQQLDA5DbG91ZCBQbGF0Zm9ybTEMMAoGA1UECAwDTlNXMSUwIwYDVQQDDBxDYW52YSBQcm9kIFJvb3QgQ0EgR2xvYmFsIEczMQ8wDQYDVQQHDAZTeWRuZXkwHhcNMjYwNTE1MDMxMjU1WhcNMjYxMTExMDMxMjU1WjBtMQswCQYDVQQGEwJBVTEMMAoGA1UECBMDTlNXMQ8wDQYDVQQHEwZTeWRuZXkxEzARBgNVBAoTCkNhbnZhIFByb2QxEDAOBgNVBAsTB1NpZ25pbmcxGDAWBgNVBAMTD1NpZ25pbmcgQ0EgUHJvZDCCAiIwDQYJKoZIhvcNAQEBBQADggIPADCCAgoCggIBAPQwdl7gkSYd/haQbn60D5XBZzJjOxjDX1oVoyeH9BmnwDCRyLwaOoZ03T3PM6tgSnqT2cBdNPRjsfe0hSGkMhbLSOrKwFE4hi8p0aTPkungwfeEHqdeciIvBekd+r873kKzxDvCuYygHUM8wtcE18D+pEWpB4ZWAvZSXE9yHGQzWXWMSFJ+3GBnT0qlgWpwt4MTI8Hb6et+xf2oa5gueYk4RmzUS2YtrmqOpt0anuaU7xBrAdBSZnZCwPtgkOhJvvBTdc4ef/qHumzmtWFMrnXqvJqQQp/0/XT2bfvrLJSjJ8bGpAPkTgq2VpNWwfQBaif4vcyjRymf9DEuKQX7aJHZEbHJWwxRpAvBbRRdaU7DjvXrbfByuy+QZn5izjQb5A4Gsgdr9urRwDodm/FI1C3ojv4zQYNsbPaR0PcKhs1pdc0YW3jL6peOgxvH80t8yELn5+sOhtQXxFRKQJD5KfOL3k+JvEkUdoieOLwuuO54ye6d/znXTz2zLKtc2oFoVBvJj/W2QRIR5CYW50+sOXurCHqwdLNYs7OuZ0pnMl3j34AHOUBw4ZT5vqXfcnI/tMPPEaxkxHJBoR5BpgQvA8h4Q2zVwh8VEtWV9CKYKDQnp1vftErsYgbjP/Ku8xvP2+eST1yTMEX7cLNO1PzP+a2KeW17BjhAOk90J9s9r/d9AgMBAAGjgcswgcgwEgYDVR0TAQH/BAgwBgEB/wIBATAfBgNVHSMEGDAWgBS7OGR5aZYka7D+kRKylDTyz5xjizAdBgNVHQ4EFgQUSlxt/ndQaL1jKWFk7YbiIcsE4x0wDgYDVR0PAQH/BAQDAgGGMGIGA1UdHwRbMFkwV6BVoFOGUWh0dHA6Ly9kMXVhZG4wcGpzaWg4bS5jbG91ZGZyb250Lm5ldC9jcmwvNWU0OWJhZGQtMGE2Ni00ZjNhLWIzY2YtMWE0ZmQwZjYzNWQxLmNybDANBgkqhkiG9w0BAQ0FAAOCAgEAqo63BqerqV9bpe4XOXD8QkcnbBWL1dj11OM1lI+Uivd+cnarPYlFnd/lUJr/5OYD2nbC/loE0pInI3j+5fX+o/EW6erKQoXHeY0MPT0mbEwQDWROyMR49uF/l4EGXDbKDiULdf4T89OfHxVdOPBsb2Nxo0ZsmsPX9Jm1iCNu2Lxgqdkw54yH3fC2/o222yGAVFzFSZLqxu++FwAqLdT9iwydu1IEkkfV2KuvqtC4ZJqCF0tvFrBwt3U58yfDxop74b7hM64qNDXR3C8wrCUFFNyc0m66f68G8+6Op82a3mZz7Qe7akPC0cH4tuakL6HHaSxKaBMIsyML6iIlR4AWerURUmUH76eorMLi4PddrJMbWO9nwmUl5nB0IhujXoNaYM/l5SsuIMny39xHjqFbOWaTnj0fV/1RmqJMwLI4OOuc7TFvCb3LKc8kIy9w33yypaM4ZJZBA9RcCqwx00zObWFZ2M3PGe23mr25hFr2u9hyZ67wz0STwvPWxagRpVymR0j9c5kFjWckL/Ei2UrbZ7f0NL8lCJsNVmAqx+Q6Rn61efeuUPvPGm4ky9S0GZGeEDeKpnFrnT5cSTU/Z/FfYp7gDTbmGSTihUljb4lmNaAPWpi9dnlZEdlJTxIyLDHWKLDY9dwXwf/IR4SKxmUgYzbUtziDOFSZEvGutOwNtu+hY3BhZFko7wAAAAAAAAAAAAAAAAAAAAAAAAAAAAAAAAAAAAAAAAAAAAAAAAAAAAAAAAAAAAAAAAAAAAAAAAAAAAAAAAAAAAAAAAAAAAAAAAAAAAAAAAAAAAAAAAAAAAAAAAAAAAAAAAAAAAAAAAAAAAAAAAAAAAAAAAAAAAAAAAAAAAAAAAAAAAAAAAAAAAAAAAAAAAAAAAAAAAAAAAAAAAAAAAAAAAAAAAAAAAAAAAAAAAAAAAAAAAAAAAAAAAAAAAAAAAAAAAAAAAAAAAAAAAAAAAAAAAAAAAAAAAAAAAAAAAAAAAAAAAAAAAAAAAAAAAAAAAAAAAAAAAAAAAAAAAAAAAAAAAAAAAAAAAAAAAAAAAAAAAAAAAAAAAAAAAAAAAAAAAAAAAAAAAAAAAAAAAAAAAAAAAAAAAAAAAAAAAAAAAAAAAAAAAAAAAAAAAAAAAAAAAAAAAAAAAAAAAAAAAAAAAAAAAAAAAAAAAAAAAAAAAAAAAAAAAAAAAAAAAAAAAAAAAAAAAAAAAAAAAAAAAAAAAAAAAAAAAAAAAAAAAAAAAAAAAAAAAAAAAAAAAAAAAAAAAAAAAAAAAAAAAAAAAAAAAAAAAAAAAAAAAAAAAAAAAAAAAAAAAAAAAAAAAAAAAAAAAAAAAAAAAAAAAAAAAAAAAAAAAAAAAAAAAAAAAAAAAAAAAAAAAAAAAAAAAAAAAAAAAAAAAAAAAAAAAAAAAAAAAAAAAAAAAAAAAAAAAAAAAAAAAAAAAAAAAAAAAAAAAAAAAAAAAAAAAAAAAAAAAAAAAAAAAAAAAAAAAAAAAAAAAAAAAAAAAAAAAAAAAAAAAAAAAAAAAAAAAAAAAAAAAAAAAAAAAAAAAAAAAAAAAAAAAAAAAAAAAAAAAAAAAAAAAAAAAAAAAAAAAAAAAAAAAAAAAAAAAAAAAAAAAAAAAAAAAAAAAAAAAAAAAAAAAAAAAAAAAAAAAAAAAAAAAAAAAAAAAAAAAAAAAAAAAAAAAAAAAAAAAAAAAAAAAAAAAAAAAAAAAAAAAAAAAAAAAAAAAAAAAAAAAAAAAAAAAAAAAAAAAAAAAAAAAAAAAAAAAAAAAAAAAAAAAAAAAAAAAAAAAAAAAAAAAAAAAAAAAAAAAAAAAAAAAAAAAAAAAAAAAAAAAAAAAAAAAAAAAAAAAAAAAAAAAAAAAAAAAAAAAAAAAAAAAAAAAAAAAAAAAAAAAAAAAAAAAAAAAAAAAAAAAAAAAAAAAAAAAAAAAAAAAAAAAAAAAAAAAAAAAAAAAAAAAAAAAAAAAAAAAAAAAAAAAAAAAAAAAAAAAAAAAAAAAAAAAAAAAAAAAAAAAAAAAAAAAAAAAAAAAAAAAAAAAAAAAAAAAAAAAAAAAAAAAAAAAAAAAAAAAAAAAAAAAAAAAAAAAAAAAAAAAAAAAAAAAAAAAAAAAAAAAAAAAAAAAAAAAAAAAAAAAAAAAAAAAAAAAAAAAAAAAAAAAAAAAAAAAAAAAAAAAAAAAAAAAAAAAAAAAAAAAAAAAAAAAAAAAAAAAAAAAAAAAAAAAAAAAAAAAAAAAAAAAAAAAAAAAAAAAAAAAAAAAAAAAAAAAAAAAAAAAAAAAAAAAAAAAAAAAAAAAAAAAAAAAAAAAAAAAAAAAAAAAAAAAAAAAAAAAAAAAAAAAAAAAAAAAAAAAAAAAAAAAAAAAAAAAAAAAAAAAAAAAAAAAAAAAAAAAAAAAAAAAAAAAAAAAAAAAAAAAAAAAAAAAAAAAAAAAAAAAAAAAAAAAAAAAAAAAAAAAAAAAAAAAAAAAAAAAAAAAAAAAAAAAAAAAAAAAAAAAAAAAAAAAAAAAAAAAAAAAAAAAAAAAAAAAAAAAAAAAAAAAAAAAAAAAAAAAAAAAAAAAAAAAAAAAAAAAAAAAAAAAAAAAAAAAAAAAAAAAAAAAAAAAAAAAAAAAAAAAAAAAAAAAAAAAAAAAAAAAAAAAAAAAAAAAAAAAAAAAAAAAAAAAAAAAAAAAAAAAAAAAAAAAAAAAAAAAAAAAAAAAAAAAAAAAAAAAAAAAAAAAAAAAAAAAAAAAAAAAAAAAAAAAAAAAAAAAAAAAAAAAAAAAAAAAAAAAAAAAAAAAAAAAAAAAAAAAAAAAAAAAAAAAAAAAAAAAAAAAAAAAAAAAAAAAAAAAAAAAAAAAAAAAAAAAAAAAAAAAAAAAAAAAAAAAAAAAAAAAAAAAAAAAAAAAAAAAAAAAAAAAAAAAAAAAAAAAAAAAAAAAAAAAAAAAAAAAAAAAAAAAAAAAAAAAAAAAAAAAAAAAAAAAAAAAAAAAAAAAAAAAAAAAAAAAAAAAAAAAAAAAAAAAAAAAAAAAAAAAAAAAAAAAAAAAAAAAAAAAAAAAAAAAAAAAAAAAAAAAAAAAAAAAAAAAAAAAAAAAAAAAAAAAAAAAAAAAAAAAAAAAAAAAAAAAAAAAAAAAAAAAAAAAAAAAAAAAAAAAAAAAAAAAAAAAAAAAAAAAAAAAAAAAAAAAAAAAAAAAAAAAAAAAAAAAAAAAAAAAAAAAAAAAAAAAAAAAAAAAAAAAAAAAAAAAAAAAAAAAAAAAAAAAAAAAAAAAAAAAAAAAAAAAAAAAAAAAAAAAAAAAAAAAAAAAAAAAAAAAAAAAAAAAAAAAAAAAAAAAAAAAAAAAAAAAAAAAAAAAAAAAAAAAAAAAAAAAAAAAAAAAAAAAAAAAAAAAAAAAAAAAAAAAAAAAAAAAAAAAAAAAAAAAAAAAAAAAAAAAAAAAAAAAAAAAAAAAAAAAAAAAAAAAAAAAAAAAAAAAAAAAAAAAAAAAAAAAAAAAAAAAAAAAAAAAAAAAAAAAAAAAAAAAAAAAAAAAAAAAAAAAAAAAAAAAAAAAAAAAAAAAAAAAAAAAAAAAAAAAAAAAAAAAAAAAAAAAAAAAAAAAAAAAAAAAAAAAAAAAAAAAAAAAAAAAAAAAAAAAAAAAAAAAAAAAAAAAAAAAAAAAAAAAAAAAAAAAAAAAAAAAAAAAAAAAAAAAAAAAAAAAAAAAAAAAAAAAAAAAAAAAAAAAAAAAAAAAAAAAAAAAAAAAAAAAAAAAAAAAAAAAAAAAAAAAAAAAAAAAAAAAAAAAAAAAAAAAAAAAAAAAAAAAAAAAAAAAAAAAAAAAAAAAAAAAAAAAAAAAAAAAAAAAAAAAAAAAAAAAAAAAAAAAAAAAAAAAAAAAAAAAAAAAAAAAAAAAAAAAAAAAAAAAAAAAAAAAAAAAAAAAAAAAAAAAAAAAAAAAAAAAAAAAAAAAAAAAAAAAAAAAAAAAAAAAAAAAAAAAAAAAAAAAAAAAAAAAAAAAAAAAAAAAAAAAAAAAAAAAAAAAAAAAAAAAAAAAAAAAAAAAAAAAAAAAAAAAAAAAAAAAAAAAAAAAAAAAAAAAAAAAAAAAAAAAAAAAAAAAAAAAAAAAAAAAAAAAAAAAAAAAAAAAAAAAAAAAAAAAAAAAAAAAAAAAAAAAAAAAAAAAAAAAAAAAAAAAAAAAAAAAAAAAAAAAAAAAAAAAAAAAAAAAAAAAAAAAAAAAAAAAAAAAAAAAAAAAAAAAAAAAAAAAAAAAAAAAAAAAAAAAAAAAAAAAAAAAAAAAAAAAAAAAAAAAAAAAAAAAAAAAAAAAAAAAAAAAAAAAAAAAAAAAAAAAAAAAAAAAAAAAAAAAAAAAAAAAAAAAAAAAAAAAAAAAAAAAAAAAAAAAAAAAAAAAAAAAAAAAAAAAAAAAAAAAAAAAAAAAAAAAAAAAAAAAAAAAAAAAAAAAAAAAAAAAAAAAAAAAAAAAAAAAAAAAAAAAAAAAAAAAAAAAAAAAAAAAAAAAAAAAAAAAAAAAAAAAAAAAAAAAAAAAAAAAAAAAAAAAAAAAAAAAAAAAAAAAAAAAAAAAAAAAAAAAAAAAAAAAAAAAAAAAAAAAAAAAAAAAAAAAAAAAAAAAAAAAAAAAAAAAAAAAAAAAAAAAAAAAAAAAAAAAAAAAAAAAAAAAAAAAAAAAAAAAAAAAAAAAAAAAAAAAAAAAAAAAAAAAAAAAAAAAAAAAAAAAAAAAAAAAAAAAAAAAAAAAAAAAAAAAAAAAAAAAAAAAAAAAAAAAAAAAAAAAAAAAAAAAAAAAAAAAAAAAAAAAAAAAAAAAAAAAAAAAAAAAAAAAAAAAAAAAAAAAAAAAAAAAAAAAAAAAAAAAAAAAAAAAAAAAAAAAAAAAAAAAAAAAAAAAAAAAAAAAAAAAAAAAAAAAAAAAAAAAAAAAAAAAAAAAAAAAAAAAAAAAAAAAAAAAAAAAAAAAAAAAAAAAAAAAAAAAAAAAAAAAAAAAAAAAAAAAAAAAAAAAAAAAAAAAAAAAAAAAAAAAAAAAAAAAAAAAAAAAAAAAAAAAAAAAAAAAAAAAAAAAAAAAAAAAAAAAAAAAAAAAAAAAAAAAAAAAAAAAAAAAAAAAAAAAAAAAAAAAAAAAAAAAAAAAAAAAAAAAAAAAAAAAAAAAAAAAAAAAAAAAAAAAAAAAAAAAAAAAAAAAAAAAAAAAAAAAAAAAAAAAAAAAAAAAAAAAAAAAAAAAAAAAAAAAAAAAAAAAAAAAAAAAAAAAAAAAAAAAAAAAAAAAAAAAAAAAAAAAAAAAAAAAAAAAAAAAAAAAAAAAAAAAAAAAAAAAAAAAAAAAAAAAAAAAAAAAAAAAAAAAAAAAAAAAAAAAAAAAAAAAAAAAAAAAAAAAAAAAAAAAAAAAAAAAAAAAAAAAAAAAAAAAAAAAAAAAAAAAAAAAAAAAAAAAAAAAAAAAAAAAAAAAAAAAAAAAAAAAAAAAAAAAAAAAAAAAAAAAAAAAAAAAAAAAAAAAAAAAAAAAAAAAAAAAAAAAAAAAAAAAAAAAAAAAAAAAAAAAAAAAAAAAAAAAAAAAAAAAAAAAAAAAAAAAAAAAAAAAAAAAAAAAAAAAAAAAAAAAAAAAAAAAAAAAAAAAAAAAAAAAAAAAAAAAAAAAAAAAAAAAAAAAAAAAAAAAAAAAAAAAAAAAAAAAAAAAAAAAAAAAAAAAAAAAAAAAAAAAAAAAAAAAAAAAAAAAAAAAAAAAAAAAAAAAAAAAAAAAAAAAAAAAAAAAAAAAAAAAAAAAAAAAAAAAAAAAAAAAAAAAAAAAAAAAAAAAAAAAAAAAAAAAAAAAAAAAAAAAAAAAAAAAAAAAAAAAAAAAAAAAAAAAAAAAAAAAAAAAAAAAAAAAAAAAAAAAAAAAAAAAAAAAAAAAAAAAAAAAAAAAAAAAAAAAAAAAAAAAAAAAAAAAAAAAAAAAAAAAAAAAAAAAAAAAAAAAAAAAAAAAAAAAAAAAAAAAAAAAAAAAAAAAAAAAAAAAAAAAAAAAAAAAAAAAAAAAAAAAAAAAAAAAAAAAAAAAAAAAAAAAAAAAAAAAAAAAAAAAAAAAAAAAAAAAAAAAAAAAAAAAAAAAAAAAAAAAAAAAAAAAAAAAAAAAAAAAAAAAAAAAAAAAAAAAAAAAAAAAAAAAAAAAAAAAAAAAAAAAAAAAAAAAAAAAAAAAAAAAAAAAAAAAAAAAAAAAAAAAAAAAAAAAAAAAAAAAAAAAAAAAAAAAAAAAAAAAAAAAAAAAAAAAAAAAAAAAAAAAAAAAAAAAAAAAAAAAAAAAAAAAAAAAAAAAAAAAAAAAAAAAAAAAAAAAAAAAAAAAAAAAAAAAAAAAAAAAAAAAAAAAAAAAAAAAAAAAAAAAAAAAAAAAAAAAAAAAAAAAAAAAAAAAAAAAAAAAAAAAAAAAAAAAAAAAAAAAAAAAAAAAAAAAAAAAAAAAAAAAAAAAAAAAAAAAAAAAAAAAAAAAAAAAAAAAAAAAAAAAAAAAAAAAAAAAAAAAAAAAAAAAAAAAAAAAAAAAAAAAAAAAAAAAAAAAAAAAAAAAAAAAAAAAAAAAAAAAAAAAAAAAAAAAAAAAAAAAAAAAAAAAAAAAAAAAAAAAAAAAAAAAAAAAAAAAAAAAAAAAAAAAAAAAAAAAAAAAAAAAAAAAAAAAAAAAAAAAAAAAAAAAAAAAAAAAAAAAAAAAAAAAAAAAAAAAAAAAAAAAAAAAAAAAAAAAAAAAAAAAAAAAAAAAAAAAAAAAAAAAAAAAAAAAAAAAAAAAAAAAAAAAAAAAAAAAAAAAAAAAAAAAAAAAAAAAAAAAAAAAAAAAAAAAAAAAAAAAAAAAAAAAAAAAAAAAAAAAAAAAAAAAAAAAAAAAAAAAAAAAAAAAAAAAAAAAAAAAAAAAAAAAAAAAAAAAAAAAAAAAAAAAAAAAAAAAAAAAAAAAAAAAAAAAAAAAAAAAAAAAAAAAAAAAAAAAAAAAAAAAAAAAAAAAAAAAAAAAAAAAAAAAAAAAAAAAAAAAAAAAAAAAAAAAAAAAAAAAAAAAAAAAAAAAAAAAAAAAAAAAAAAAAAAAAAAAAAAAAAAAAAAAAAAAAAAAAAAAAAAAAAAAAAAAAAAAAAAAAAAAAAAAAAAAAAAAAAAAAAAAAAAAAAAAAAAAAAAAAAAAAAAAAAAAAAAAAAAAAAAAAAAAAAAAAAAAAAAAAAAAAAAAAAAAAAAAAAAAAAAAAAAAAAAAAAAAAAAAAAAAAAAAAAAAAAAAAAAAAAAAAAAAAAAAAAAAAAAAAAAAAAAAAAAAAAAAAAAAAAAAAAAAAAAAAAAAAAAAAAAAAAAAAAAAAAAAAAAAAAAAAAAAAAAAAAAAAAAAAAAAAAAAAAAAAAAAAAAAAAAAAAAAAAAAAAAAAAAAAAAAAAAAAAAAAAAAAAAAAAAAAAAAAAAAAAAAAAAAAAAAAAAAAAAAAAAAAAAAAAAAAAAAAAAAAAAAAAAAAAAAAAAAAAAAAAAAAAAAAAAAAAAAAAAAAAAAAAAAAAAAAAAAAAAAAAAAAAAAAAAAAAAAAAAAAAAAAAAAAAAAAAAAAAAAAAAAAAAAAAAAAAAAAAAAAAAAAAAAAAAAAAAAAAAAAAAAAAAAAAAAAAAAAAAAAAAAAAAAAAAAAAAAAAAAAAAAAAAAAAAAAAAAAAAAAAAAAAAAAAAAAAAAAAAAAAAAAAAAAAAAAAAAAAAAAAAAAAAAAAAAAAAAAAAAAAAAAAAAAAAAAAAAAAAAAAAAAAAAAAAAAAAAAAAAAAAAAAAAAAAAAAAAAAAAAAAAAAAAAAAAAAAAAAAAAAAAAAAAAAAAAAAAAAAAAAAAAAAAAAAAAAAAAAAAAAAAAAAAAAAAAAAAAAAAAAAAAAAAAAAAAAAAAAAAAAAAAAAAAAAAAAAAAAAAAAAAAAAAAAAAAAAAAAAAAAAAAAAAAAAAAAAAAAAAAAAAAAAAAAAAAAAAAAAAAAAAAAAAAAAAAAAAAAAAAAAAAAAAAAAAAAAAAAAAAAAAAAAAAAAAAAAAAAAAAAAAAAAAAAAAAAAAAAAAAAAAAAAAAAAAAAAAAAAAAAAAAAAAAAAAAAAAAAAAAAAAAAAAAAAAAAAAAAAAAAAAAAAAAAAAAAAAAAAAAAAAAAAAAAAAAAAAAAAAAAAAAAAAAAAAAAAAAAAAAAAAAAAAAAAAAAAAAAAAAAAAAAAAAAAAAAAAAAAAAAAAAAAAAAAAAAAAAAAAAAAAAAAAAAAAAAAAAAAAAAAAAAAAAAAAAAAAAAAAAAAAAAAAAAAAAAAAAAAAAAAAAAAAAAAAAAAAAAAAAAAAAAAAAAAAAAAAAAAAAAAAAAAAAAAAAAAAAAAAAAAAAAAAAAAAAAAAAAAAAAAAAAAAAAAAAAAAAAAAAAAAAAAAAAAAAAAAAAAAAAAAAAAAAAAAAAAAAAAAAAAAAAAAAAAAAAAAAAAAAAAAAAAAAAAAAAAAAAAAAAAAAAAAAAAAAAAAAAAAAAAAAAAAAAAAAAAAAAAAAAAAAAAAAAAAAAAAAAAAAAAAAAAAAAAAAAAAAAAAAAAAAAAAAAAAAAAAAAAAAAAAAAAAAAAAAAAAAAAAAAAAAAAAAAAAAAAAAAAAAAAAAAAAAAAAAAAAAAAAAAAAAAAAAAAAAAAAAAAAAAAAAAAAAAAAAAAAAAAAAAAAAAAAAAAAAAAAAAAAAAAAAAAAAAAAAAAAAAAAAAAAAAAAAAAAAAAAAAAAAAAAAAAAAAAAAAAAAAAAAAAAAAAAAAAAAAAAAAAAAAAAAAAAAAAAAAAAAAAAAAAAAAAAAAAAAAAAAAAAAAAAAAAAAAAAAAAAAAAAAAAAAAAAAAAAAAAAAAAAAAAAAAAAAAAAAAAAAAAAAAAAAAAAAAAAAAAAAAAAAAAAAAAAAAAAAAAAAAAAAAAAAAAAAAAAAAAAAAAAAAAAAAAAAAAAAAAAAAAAAAAAAAAAAAAAAAAAAAAAAAAAAAAAAAAAAAAAAAAAAAAAAAAAAAAAAAAAAAAAAAAAAAAAAAAAAAAAAAAAAAAAAAAAAAAAAAAAAAAAAAAAAAAAAAAAAAAAAAAAAAAAAAAAAAAAAAAAAAAAAAAAAAAAAAAAAAAAAAAAAAAAAAAAAAAAAAAAAAAAAAAAAAAAAAAAAAAAAAAAAAAAAAAAAAAAAAAAAAAAAAAAAAAAAAAAAAAAAAAAAAAAAAAAAAAAAAAAAAAAAAAAAAAAAAAAAAAAAAAAAAAAAAAAAAAAAAAAAAAAAAAAAAAAAAAAAAAAAAAAAAAAAAAAAAAAAAAAAAAAAAAAAAAAAAAAAAAAAAAAAAAAAAAAAAAAAAAAAAAAAAAAAAAAAAAAAAAAAAAAAAAAAAAAAAAAAAAAAAAAAAAAAAAAAAAAAAAAAAAAAAAAAAAAAAAAAAAAAAAAAAAAAAAAAAAAAAAAAAAAAAAAAAAAAAAAAAAAAAAAAAAAAAAAAAAAAAAAAAAAAAAAAAAAAAAAAAAAAAAAAAAAAAAAAAAAAAAAAAAAAAAAAAAAAAAAAAAAAAAAAAAAAAAAAAAAAAAAAAAAAAAAAAAAAAAAAAAAAAAAAAAAAAAAAAAAAAAAAAAAAAAAAAAAAAAAAAAAAAAAAAAAAAAAAAAAAAAAAAAAAAAAAAAAAAAAAAAAAAAAAAAAAAAAAAAAAAAAAAAAAAAAAAAAAAAAAAAAAAAAAAAAAAAAAAAAAAAAAAAAAAAAAAAAAAAAAAAAAAAAAAAAAAAAAAAAAAAAAAAAAAAAAAAAAAAAAAAAAAAAAAAAAAAAAAAAAAAAAAAAAAAAAAAAAAAAAAAAAAAAAAAAAAAAAAAAAAAAAAAAAAAAAAAAAAAAAAAAAAAAAAAAAAAAAAAAAAAAAAAAAAAAAAAAAAAAAAAAAAAAAAAAAAAAAAAAAAAAAAAAAAAAAAAAAAAAAAAAAAAAAAAAAAAAAAAAAAAAAAAAAAAAAAAAAAAAAAAAAAAAAAAAAAAAAAAAAAAAAAAAAAAAAAAAAAAAAAAAAAAAAAAAAAAAAAAAAAAAAAAAAAAAAAAAAAAAAAAAAAAAAAAAAAAAAAAAAAAAAAAAAAAAAAAAAAAAAAAAAAAAAAAAAAAAAAAAAAAAAAAAAAAAAAAAAAAAAAAAAAAAAAAAAAAAAAAAAAAAAAAAAAAAAAAAAAAAAAAAAAAAAAAAAAAAAAAAAAAAAAAAAAAAAAAAAAAAAAAAAAAAAAAAAAAAAAAAAAAAAAAAAAAAAAAAAAAAAAAAAAAAAAAAAAAAAAAAAAAAAAAAAAAAAAAAAAAAAAAAAAAAAAAAAAAAAAAAAAAAAAAAAAAAAAAAAAAAAAAAAAAAAAAAAAAAAAAAAAAAAAAAAAAAAAAAAAAAAAAAAAAAAAAAAAAAAAAAAAAAAAAAAAAAAAAAAAAAAAAAAAAAAAAAAAAAAAAAAAAAAAAAAAAAAAAAAAAAAAAAAAAAAAAAAAAAAAAAAAAAAAAAAAAAAAAAAAAAAAAAAAAAAAAAAAAAAAAAAAAAAAAAAAAAAAAAAAAAAAAAAAAAAAAAAAAAAAAAAAAAAAAAAAAAAAAAAAAAAAAAAAAAAAAAAAAAAAAAAAAAAAAAAAAAAAAAAAAAAAAAAAAAAAAAAAAAAAAAAAAAAAAAAAAAAAAAAAAAAAAAAAAAAAAAAAAAAAAAAAAAAAAAAAAAAAAAAAAAAAAAAAAAAAAAAAAAAAAAAAAAAAAAAAAAAAAAAAAAAAAAAAAAAAAAAAAAAAAAAAAAAAAAAAAAAAAAAAAAAAAAAAAAAAAAAAAAAAAAAAAAAAAAAAAAAAAAAAAAAAAAAAAAAAAAAAAAAAAAAAAAAAAAAAAAAAAAAAAAAAAAAAAAAAAAAAAAAAAAAAAAAAAAAAAAAAAAAAAAAAAAAAAAAAAAAAAAAAAAAAAAAAAAAAAAAAAAAAAAAAAAAAAAAAAAAAAAAAAAAAAAAAAAAAAAAAAAAAAAAAAAAAAAAAAAAAAAAAAAAAAAAAAAAAAAAAAAAAAAAAAAAAAAAAAAAAAAAAAAAAAAAAAAAAAAAAAAAAAAAAAAAAAAAAAAAAAAAAAAAAAAAAAAAAAAAAAAAAAAAAAAAAAAAAAAAAAAAAAAAAAAAAAAAAAAAAAAAAAAAAAAAAAAAAAAAAAAAAAAAAAAAAAAAAAAAAAAAAAAAAAAAAAAAAAAAAAAAAAAAAAAAAAAAAAAAAAAAAAAAAAAAAAAAAAAAAAAAAAAAAAAAAAAAAAAAAAAAAAAAAAAAAAAAAAAAAAAAAAAAAAAAAAAAAAAAAAAAAAAAAAAAAAAAAAAAAAAAAAAAAAAAAAAAAAAAAAAAAAAAAAAAAAAAAAAAAAAAAAAAAAAAAAAAAAAAAAAAAAAAAAAAAAAAAAAAAAAAAAAAAAAAAAAAAAAAAAAAAAAAAAAAAAAAAAAAAAAAAAAAAAAAAAAAAAAAAAAAAAAAAAAAAAAAAAAAAAAAAAAAAAAAAAAAAAAAAAAAAAAAAAAAAAAAAAAAAAAAAAAAAAAAAAAAAAAAAAAAAAAAAAAAAAAAAAAAAAAAAAAAAAAAAAAAAAAAAAAAAAAAAAAAAAAAAAAAAAAAAAAAAAAAAAAAAAAAAAAAAAAAAAAAAAAAAAAAAAAAAAAAAAAAAAAAAAAAAAAAAAAAAAAAAAAAAAAAAAAAAAAAAAAAAAAAAAAAAAAAAAAAAAAAAAAAAAAAAAAAAAAAAAAAAAAAAAAAAAAAAAAAAAAAAAAAAAAAAAAAAAAAAAAAAAAAAAAAAAAAAAAAAAAAAAAAAAAAAAAAAAAAAAAAAAAAAAAAAAAAAAAAAAAAAAAAAAAAAAAAAAAAAAAAAAAAAAAAAAAAAAAAAAAAAAAAAAAAAAAAAAAAAAAAAAAAAAAAAAAAAAAAAAAAAAAAAAAAAAAAAAAAAAAAAAAAAAAAAAAAAAAAAAAAAAAAAAAAAAAAAAAAAAAAAAAAAAAAAAAAAAAAAAAAAAAAAAAAAAAAAAAAAAAAAAAAAAAAAAAAAAAAAAAAAAAAAAAAAAAAAAAAAAAAAAAAAAAAAAAAAAAAAAAAAAAAAAAAAAAAAAAAAAAAAAAAAAAAAAAAAAAAAAAAAAAAAAAAAAAAAAAAAAAAAAAAAAAAAAAAAAAAAAAAAAAAAAAAAAAAAAAAAAAAAAAAAAAAAAAAAAAAAAAAAAAAAAAAAAAAAAAAAAAAAAAAAAAAAAAAAAAAAAAAAAAAAAAAAAAAAAAAAAAAAAAAAAAAAAAAAAAAAAAAAAAAAAAAAAAAAAAAAAAAAAAAAAAAAAAAAAAAAAAAAAAAAAAAAAAAAAAAAAAAAAAAAAAAAAAAAAAAAAAAAAAAAAAAAAAAAAAAAAAAAAAAAAAAAAAAAAAAAAAAAAAAAAAAAAAAAAAAAAAAAAAAAAAAAAAAAAAAAAAAAAAAAAAAAAAAAAAAAAAAAAAAAAAAAAAAAAAAAAAAAAAAAAAAAAAAAAAAAAAAAAAAAAAAAAAAAAAAAAAAAAAAAAAAAAAAAAAAAAAAAAAAAAAAAAAAAAAAAAAAAAAAAAAAAAAAAAAAAAAAAAAAAAAAAAAAAAAAAAAAAAAAAAAAAAAAAAAAAAAAAAAAAAAAAAAAAAAAAAAAAAAAAAAAAAAAAAAAAAAAAAAAAAAAAAAAAAAAAAAAAAAAAAAAAAAAAAAAAAAAAAAAAAAAAAAAAAAAAAAAAAAAAAAAAAAAAAAAAAAAAAAAAAAAAAAAAAAAAAAAAAAAAAAAAAAAAAAAAAAAAAAAAAAAAAAAAAAAAAAAAAAAAAAAAAAAAAAAAAAAAAAAAAAAAAAAAAAAAAAAAAAAAAAAAAAAAAAAAAAAAAAAAAAAAAAAAAAAAAAAAAAAAAAAAAAAAAAAAAAAAAAAAAAAAAAAAAAAAAAAAAAAAAAAAAAAAAAAAAAAAAAAAAAAAAAAAAAAAAAAAAAAAAAAAAAAAAAAAAAAAAAAAAAAAAAAAAAAAAAAAAAAAAAAAAAAAAAAAAAAAAAAAAAAAAAAAAAAAAAAAAAAAAAAAAAAAAAAAAAAAAAAAAAAAAAAAAAAAAAAAAAAAAAAAAAAAAAAAAAAAAAAAAAAAAAAAAAAAAAAAAAAAAAAAAAAAAAAAAAAAAAAAAAAAAAAAAAAAAAAAAAAAAAAAAAAAAAAAAAAAAAAAAAAAAAAAAAAAAAAAAAAAAAAAAAAAAAAAAAAAAAAAAAAAAAAAAAAAAAAAAAAAAAAAAAAAAAAAAAAAAAAAAAAAAAAAAAAAAAAAAAAAAAAAAAAAAAAAAAAAAAAAAAAAAAAAAAAAAAAAAAAAAAAAAAAAAAAAAAAAAAAAAAAAAAAAAAAAAAAAAAAAAAAAAAAAAAAAAAAAAAAAAAAAAAAAAAAAAAAAAAAAAAAAAAAAAAAAAAAAAAAAAAAAAAAAAAAAAAAAAAAAAAAAAAAAAAAAAAAAAAAAAAAAAAAAAAAAAAAAAAAAAAAAAAAAAAAAAAAAAAAAAAAAAAAAAAAAAAAAAAAAAAAAAAAAAAAAAAAAAAAAAAAAAAAAAAAAAAAAAAAAAAAAAAAAAAAAAAAAAAAAAAAAAAAAAAAAAAAAAAAAAAAAAAAAAAAAAAAAAAAAAAAAAAAAAAAAAAAAAAAAAAAAAAAAAAAAAAAAAAAAAAAAAAAAAAAAAAAAAAAAAAAAAAAAAAAAAAAAAAAAAAAAAAAAAAAAAAAAAAAAAAAAAAAAAAAAAAAAAAAAAAAAAAAAAAAAAAAAAAAAAAAAAAAAAAAAAAAAAAAAAAAAAAAAAAAAAAAAAAAAAAAAAAAAAAAAAAAAAAAAAAAAAAAAAAAAAAAAAAAAAAAAAAAAAAAAAAAAAAAAAAAAAAAAAAAAAAAAAAAAAAAAAAAAAAAAAAAAAAAAAAAAAAAAAAAAAAAAAAAAAAAAAAAAAAAAAAAAAAAAAAAAAAAAAAAAAAAAAAAAAAAAAAAAAAAAAAAAAAAAAAAAAAAAAAAAAAAAAAAAAAAAAAAAAAAAAAAAAAAAAAAAAAAAAAAAAAAAAAAAAAAAAAAAAAAAAAAAAAAAAAAAAAAAAAAAAAAAAAAAAAAAAAAAAAAAAAAAAAAAAAAAAAAAAAAAAAAAAAAAAAAAAAAAAAAAAAAAAAAAAAAAAAAAAAAAAAAAAAAAAAAAAAAAAAAAAAAAAAAAAAAAAAAAAAAAAAAAAAAAAAAAAAAAAAAAAAAAAAAAAAAAAAAAAAAAAAAAAAAAAAAAAAAAAAAAAAAAAAAAAAAAAAAAAAAAAAAAAAAAAAAAAAAAAAAAAAAAAAAAAAAAAAAAAAAAAAAAAAAAAAAAAAAAAAAAAAAAAAAAAAAAAAAAAAAAAAAAAAAAAAAAAAAAAAAAAAAAAAAAAAAAAAAAAAAAAAAAAAAAAAAAAAAAAAAAAAAAAAAAAAAAAAAAAAAAAAAAAAAAAAAAAAAAAAAAAAAAAAAAAAAAAAAAAAAAAAAAAAAAAAAAAAAAAAAAAAAAAAAAAAAAAAAAAAAAAAAAAAAAAAAAAAAAAAAAAAAAAAAAAAAAAAAAAAAAAAAAAAAAAAAAAAAAAAAAAAAAAAAAAAAAAAAAAAAAAAAAAAAAAAAAAAAAAAAAAAAAAAAAAAAAAAAAAAAAAAAAAAAAAAAAAAAAAAAAAAAAAAAAAAAAAAAAAAAAAAAAAAAAAAAAAAAAAAAAAAAAAAAAAAAAAAAAAAAAAAAAAAAAAAAAAAAAAAAAAAAAAAAAAAAAAPZZAgCT7yknxcmaqZSrnV72jRKSiHdrHO3Iu2cQC4A6v+eMmtI1drTPNXUv36IcuCxqRBMqEKUUv1rpSuW57BxtozcdPiE5JxFJJCvkFtR6229Mez+kcDVuLvhn2MDRfl2b+BM0kjmfeBKV0BMn/SlLWSW8kdWHp5/lYrUMJFonIRAypmenkJ5N5ALivZCYiSTuhgB63DJbHqp4lBlDMFaEuvxW6ZV3wF1T8HFEbSiX7brEZK2n65ZsghjBUFL0v2IYzMpgGdLprJf6d5K/W1vFnrNDs/q7N4Z4Tqs6bh3mte44xHOd8dtgIjDBtHbtEbawpYz84tpym7GpdYBnuQqCDgimYvIrKqOFrpkt+k3JpSU+YpZoVBXXg7YWzsA6wQAcLYYanO3rmrrpu7djEhuXoOESZCAeQfI+ufTyR6WCbMD+ruqImOGnJ+qX5X/PNJrc/YbzmhRmeuUvcN0RpOkerpRHIpfjE5G8gmI6Xu1lPDkNwm+X2hRIhALaWbq7uXUcMLfSfqG+DrmvPe1q3RX3TsqG+PwBVO9TIq2s3hYIMoAVPPs2UuDBXVJdBDh0uYNEio31Wd9dYsE1aC2IJ14Wz0kJgfvaSusQpMNJHPnymNgkW54uDO1ZUM3F9m/R/9LkQuIatq22LGgSLLXbPNQaYGZElw8lw1RoN/LZ2wO9NSqWGw==</manifest><ContainsAiGeneratedContent>Yes</ContainsAiGeneratedContent></metadata><defs><filter x="0%" y="0%" width="100%" height="100%" id="ef4fc93140"><feColorMatrix values="0 0 0 0 1 0 0 0 0 1 0 0 0 0 1 0 0 0 1 0" color-interpolation-filters="sRGB"></feColorMatrix></filter><filter x="0%" y="0%" width="100%" height="100%" id="90562e2466"><feColorMatrix values="0 0 0 0 1 0 0 0 0 1 0 0 0 0 1 0.2126 0.7152 0.0722 0 0" color-interpolation-filters="sRGB"></feColorMatrix></filter><g></g><clipPath id="b6d89d68b4"><path d="M 279.929688 95.253906 L 1220.429688 95.253906 L 1220.429688 1103.253906 L 279.929688 1103.253906 Z M 279.929688 95.253906 " clip-rule="nonzero"></path></clipPath><mask id="509b072a67"><g filter="url(#ef4fc93140)"><g filter="url(#90562e2466)" transform="matrix(1.190579, 0, 0, 1.191379, 266.791006, 80.982405)"><image x="0" y="0" width="812" height="870" preserveAspectRatio="xMidYMid meet"></image></g></g></mask><clipPath id="f56c6e9792"><rect x="0" width="1326" y="0" height="363"></rect></clipPath></defs><g clip-path="url(#b6d89d68b4)"><g mask="url(#509b072a67)"><g transform="matrix(1.190579, 0, 0, 1.191379, 266.791006, 80.982405)"><image x="0" y="0" width="812" height="870" preserveAspectRatio="xMidYMid meet"></image></g></g></g><g transform="matrix(1, 0, 0, 1, 87, 906)"><g clip-path="url(#f56c6e9792)"><g fill="#ffffff" fill-opacity="1"><g transform="translate(0.917853, 275.510386)"><g><path d="M 89.640625 -166.890625 L 116.015625 -166.890625 C 135.460938 -166.890625 151.332031 -164.28125 163.625 -159.0625 C 175.914062 -153.851562 185.019531 -145.0625 190.9375 -132.6875 C 196.851562 -120.320312 199.8125 -103.328125 199.8125 -81.703125 C 199.8125 -60.066406 196.851562 -43.0625 190.9375 -30.6875 C 185.019531 -18.320312 175.914062 -9.53125 163.625 -4.3125 C 151.332031 0.894531 135.460938 3.5 116.015625 3.5 L 89.640625 3.5 C 70.335938 3.5 54.5 0.894531 42.125 -4.3125 C 29.757812 -9.53125 20.617188 -18.320312 14.703125 -30.6875 C 8.785156 -43.0625 5.828125 -60.066406 5.828125 -81.703125 C 5.828125 -103.328125 8.785156 -120.320312 14.703125 -132.6875 C 20.617188 -145.0625 29.757812 -153.851562 42.125 -159.0625 C 54.5 -164.28125 70.335938 -166.890625 89.640625 -166.890625 Z M 89.640625 -26.140625 L 116.015625 -26.140625 C 129.390625 -26.140625 139.773438 -27.890625 147.171875 -31.390625 C 154.566406 -34.890625 159.738281 -40.6875 162.6875 -48.78125 C 165.644531 -56.875 167.125 -67.847656 167.125 -81.703125 C 167.125 -95.546875 165.644531 -106.515625 162.6875 -114.609375 C 159.738281 -122.703125 154.566406 -128.5 147.171875 -132 C 139.773438 -135.5 129.390625 -137.25 116.015625 -137.25 L 89.640625 -137.25 C 76.410156 -137.25 66.097656 -135.5 58.703125 -132 C 51.316406 -128.5 46.101562 -122.703125 43.0625 -114.609375 C 40.03125 -106.515625 38.515625 -95.546875 38.515625 -81.703125 C 38.515625 -67.847656 40.03125 -56.875 43.0625 -48.78125 C 46.101562 -40.6875 51.316406 -34.890625 58.703125 -31.390625 C 66.097656 -27.890625 76.410156 -26.140625 89.640625 -26.140625 Z M 89.640625 -26.140625 "></path></g></g></g><g fill="#ffffff" fill-opacity="1"><g transform="translate(206.556027, 275.510386)"><g><path d="M 206.109375 -136.78125 L 210.3125 -136.78125 C 222.757812 -136.78125 233.109375 -134.753906 241.359375 -130.703125 C 249.609375 -126.660156 255.832031 -119.816406 260.03125 -110.171875 C 264.226562 -100.523438 266.328125 -87.300781 266.328125 -70.5 L 266.328125 0 L 235.296875 0 L 235.296875 -70.5 C 235.296875 -84.8125 232.800781 -95 227.8125 -101.0625 C 222.832031 -107.132812 214.351562 -110.171875 202.375 -110.171875 L 195.375 -110.171875 C 187.4375 -110.171875 180.429688 -108.769531 174.359375 -105.96875 C 168.296875 -103.164062 163.550781 -98.570312 160.125 -92.1875 C 156.695312 -85.8125 154.984375 -77.257812 154.984375 -66.53125 L 154.984375 0 L 123.953125 0 L 123.953125 -70.5 C 123.953125 -84.8125 121.460938 -95 116.484375 -101.0625 C 111.503906 -107.132812 103.019531 -110.171875 91.03125 -110.171875 L 84.03125 -110.171875 C 76.09375 -110.171875 69.085938 -108.769531 63.015625 -105.96875 C 56.953125 -103.164062 52.207031 -98.570312 48.78125 -92.1875 C 45.363281 -85.8125 43.65625 -77.257812 43.65625 -66.53125 L 43.65625 0 L 12.375 0 L 12.375 -133.28125 L 40.375 -133.28125 L 40.375 -104.8125 C 45.664062 -116.789062 53.210938 -125.113281 63.015625 -129.78125 C 72.828125 -134.445312 83.410156 -136.78125 94.765625 -136.78125 L 98.96875 -136.78125 C 112.039062 -136.78125 122.703125 -134.019531 130.953125 -128.5 C 139.203125 -122.976562 144.800781 -113.289062 147.75 -99.4375 C 151.175781 -108.769531 155.882812 -116.160156 161.875 -121.609375 C 167.863281 -127.054688 174.707031 -130.945312 182.40625 -133.28125 C 190.113281 -135.613281 198.015625 -136.78125 206.109375 -136.78125 Z M 206.109375 -136.78125 "></path></g></g></g><g fill="#ffffff" fill-opacity="1"><g transform="translate(485.48635, 275.510386)"><g><path d="M 170.625 -75.15625 L 170.625 -57.890625 L 40.609375 -57.890625 C 41.546875 -44.972656 45.125 -35.828125 51.34375 -30.453125 C 57.570312 -25.085938 68 -22.40625 82.625 -22.40625 L 101.765625 -22.40625 C 115.617188 -22.40625 125.460938 -24.660156 131.296875 -29.171875 C 137.128906 -33.691406 140.046875 -39.914062 140.046875 -47.84375 L 170.625 -47.84375 C 170.625 -29.175781 164.789062 -15.953125 153.125 -8.171875 C 141.457031 -0.390625 124.335938 3.5 101.765625 3.5 L 79.125 3.5 C 63.257812 3.5 50.226562 1.433594 40.03125 -2.6875 C 29.84375 -6.8125 22.296875 -13.96875 17.390625 -24.15625 C 12.484375 -34.351562 10.03125 -48.476562 10.03125 -66.53125 C 10.03125 -84.582031 12.484375 -98.703125 17.390625 -108.890625 C 22.296875 -119.085938 29.84375 -126.285156 40.03125 -130.484375 C 50.226562 -134.679688 63.257812 -136.78125 79.125 -136.78125 L 101.765625 -136.78125 C 116.710938 -136.78125 129.316406 -134.953125 139.578125 -131.296875 C 149.847656 -127.640625 157.585938 -121.335938 162.796875 -112.390625 C 168.015625 -103.441406 170.625 -91.03125 170.625 -75.15625 Z M 40.609375 -75.15625 L 140.046875 -75.15625 C 140.046875 -88.382812 136.78125 -97.644531 130.25 -102.9375 C 123.71875 -108.226562 113.210938 -110.875 98.734375 -110.875 L 82.625 -110.875 C 68 -110.875 57.570312 -108.1875 51.34375 -102.8125 C 45.125 -97.445312 41.546875 -88.226562 40.609375 -75.15625 Z M 40.609375 -75.15625 "></path></g></g></g><g fill="#ffffff" fill-opacity="1"><g transform="translate(666.149181, 275.510386)"><g><path d="M 133.28125 -112.046875 L 133.28125 -133.28125 L 164.5625 -133.28125 L 164.5625 -13.078125 C 164.5625 2.480469 162.378906 14.582031 158.015625 23.21875 C 153.660156 31.863281 146.929688 37.894531 137.828125 41.3125 C 128.734375 44.738281 116.867188 46.453125 102.234375 46.453125 L 19.375 46.453125 L 19.375 19.84375 L 102.234375 19.84375 C 110.484375 19.84375 116.828125 18.867188 121.265625 16.921875 C 125.703125 14.972656 128.8125 11.585938 130.59375 6.765625 C 132.382812 1.941406 133.28125 -4.671875 133.28125 -13.078125 L 133.28125 -26.609375 C 127.519531 -17.585938 119.816406 -11.207031 110.171875 -7.46875 C 100.523438 -3.738281 89.710938 -1.875 77.734375 -1.875 L 73.53125 -1.875 C 59.988281 -1.875 48.472656 -3.929688 38.984375 -8.046875 C 29.492188 -12.171875 22.296875 -19.132812 17.390625 -28.9375 C 12.484375 -38.75 10.03125 -52.210938 10.03125 -69.328125 C 10.03125 -86.441406 12.484375 -99.898438 17.390625 -109.703125 C 22.296875 -119.503906 29.492188 -126.46875 38.984375 -130.59375 C 48.472656 -134.71875 59.988281 -136.78125 73.53125 -136.78125 L 77.734375 -136.78125 C 89.710938 -136.78125 100.523438 -134.953125 110.171875 -131.296875 C 119.816406 -127.640625 127.519531 -121.222656 133.28125 -112.046875 Z M 80.0625 -28.484375 L 91.03125 -28.484375 C 105.65625 -28.484375 116.351562 -31.671875 123.125 -38.046875 C 129.894531 -44.429688 133.28125 -54.859375 133.28125 -69.328125 C 133.28125 -83.796875 129.894531 -94.21875 123.125 -100.59375 C 116.351562 -106.976562 105.65625 -110.171875 91.03125 -110.171875 L 80.0625 -110.171875 C 65.90625 -110.171875 55.75 -106.976562 49.59375 -100.59375 C 43.445312 -94.21875 40.375 -83.796875 40.375 -69.328125 C 40.375 -54.859375 43.445312 -44.429688 49.59375 -38.046875 C 55.75 -31.671875 65.90625 -28.484375 80.0625 -28.484375 Z M 80.0625 -28.484375 "></path></g></g></g><g fill="#ffffff" fill-opacity="1"><g transform="translate(843.077413, 275.510386)"><g><path d="M 77.734375 -136.78125 L 102 -136.78125 C 117.5625 -136.78125 130.128906 -134.753906 139.703125 -130.703125 C 149.273438 -126.660156 156.316406 -119.894531 160.828125 -110.40625 C 165.335938 -100.914062 167.59375 -87.84375 167.59375 -71.1875 L 167.59375 0 L 136.546875 0 L 136.546875 -24.96875 C 132.503906 -15.789062 126.085938 -8.75 117.296875 -3.84375 C 108.503906 1.050781 96.71875 3.5 81.9375 3.5 L 74.46875 3.5 C 53.613281 3.5 37.660156 -0.113281 26.609375 -7.34375 C 15.554688 -14.582031 10.03125 -26.140625 10.03125 -42.015625 C 10.03125 -51.816406 12.441406 -59.164062 17.265625 -64.0625 C 22.097656 -68.96875 29.101562 -72.273438 38.28125 -73.984375 C 47.457031 -75.703125 58.503906 -76.5625 71.421875 -76.5625 L 136.3125 -76.5625 C 136 -85.125 134.632812 -91.972656 132.21875 -97.109375 C 129.8125 -102.242188 125.960938 -105.9375 120.671875 -108.1875 C 115.390625 -110.445312 108.078125 -111.578125 98.734375 -111.578125 L 77.265625 -111.578125 C 64.503906 -111.578125 55.710938 -109.359375 50.890625 -104.921875 C 46.066406 -100.484375 43.65625 -95.15625 43.65625 -88.9375 L 13.3125 -88.9375 C 13.3125 -105.269531 18.597656 -117.328125 29.171875 -125.109375 C 39.753906 -132.890625 55.941406 -136.78125 77.734375 -136.78125 Z M 74.234375 -20.078125 L 91.96875 -20.078125 C 106.28125 -20.078125 117.09375 -23.109375 124.40625 -29.171875 C 131.726562 -35.242188 135.695312 -45.59375 136.3125 -60.21875 L 74.46875 -60.21875 C 62.632812 -60.21875 54.03125 -59.007812 48.65625 -56.59375 C 43.289062 -54.1875 40.609375 -49.328125 40.609375 -42.015625 C 40.609375 -34.703125 43.289062 -29.21875 48.65625 -25.5625 C 54.03125 -21.90625 62.554688 -20.078125 74.234375 -20.078125 Z M 74.234375 -20.078125 "></path></g></g></g><g fill="#ffffff" fill-opacity="1"><g transform="translate(1023.039997, 275.510386)"><g></g></g></g><g fill="#ffffff" fill-opacity="1"><g transform="translate(1077.425162, 275.510386)"><g><path d="M 198.640625 0 L 163.390625 0 L 151.484375 -27.78125 L 42.71875 -27.78125 L 30.34375 0 L -4.671875 0 L 69.328125 -163.390625 L 126.984375 -163.390625 Z M 91.734375 -137.484375 L 54.15625 -53.453125 L 140.515625 -53.453125 L 104.578125 -137.484375 Z M 91.734375 -137.484375 "></path></g></g></g><g fill="#ffffff" fill-opacity="1"><g transform="translate(1271.392625, 275.510386)"><g><path d="M 43.65625 0 L 10.03125 0 L 10.03125 -163.390625 L 43.65625 -163.390625 Z M 43.65625 0 "></path></g></g></g></g></g></svg>